<?xml version="1.0" encoding="utf-8" ?><svg xmlns="http://www.w3.org/2000/svg" xmlns:xlink="http://www.w3.org/1999/xlink" width="636" height="698" viewBox="0 0 636 698"><clipPath id="cl_5"><rect width="635.84509" height="698"/></clipPath><g clip-path="url(#cl_5)"><defs><linearGradient id="gradient_0" gradientUnits="userSpaceOnUse" x1="230.96959" y1="860.45502" x2="796.547" y2="282.10443"><stop offset="0" stop-color="#333136"/><stop offset="1" stop-color="#626266"/></linearGradient></defs><path fill="url(#gradient_0)" transform="scale(0.621549 0.621549)" d="M511.581 127.948C517.175 127.583 522.234 126.645 527.381 128.712C529.226 130.097 531.844 131.941 533.51 133.43L534.269 144.56C536.577 146.75 538.505 148.517 540.542 150.973C537.601 150.82 535.704 150.458 533.01 151.604L533.203 152.301C535.404 153.24 536.951 153.247 539.317 153.493C558.866 154.543 599.943 160.27 618.058 165.744C665.173 178.347 710.044 198.191 751.065 224.567C761.735 231.529 772.144 241.271 781.732 247.379C787.273 249.914 791.261 253.515 795.863 257.4C797.706 256.482 801.423 254.5 803.221 253.917C815.281 248.962 825.128 248.827 835.626 257.529L837.156 256.652C838.779 258.643 838.878 298.934 839.15 304.755C841.49 309.701 847.964 317.331 851.278 321.998C857.258 330.422 863.722 338.957 869.19 347.715C900.543 393.946 917.083 448.126 927.555 502.715C930.018 515.554 930.391 529.643 932.505 542.054C932.904 544.335 933.258 546.624 933.565 548.919C940.187 549.632 943.962 549.625 948.679 555.195C950.545 557.397 952.15 560.448 954.194 562.347L955.885 563.826L956.869 563.506C957.554 561.852 957.971 560.488 958.505 558.776C962.902 563.343 965.076 566.577 964.839 573.473C964.508 583.149 960.49 593.458 953.36 600.104C952.986 600.45 952.609 600.792 952.228 601.13C954.824 596.379 956.416 593.32 958.187 588.196C952.874 592.965 950.045 596.466 942.748 597.451C941.726 596.639 940.772 595.797 939.785 594.945C936.839 593.83 935.551 596.275 933.455 598.416C933.168 601.63 932.883 604.333 932.957 607.568C928.951 644.594 922.006 671.846 911.536 707.001C899.405 743.882 885.217 770.541 863.06 802.511C859.434 807.744 839.809 834.476 838.516 837.542C838.266 842.775 836.596 853.587 840.062 857.328L840.099 858.93C838.65 860.265 837.989 860.361 837.733 861.873C838.811 874.122 841.862 897.925 824.755 898.765C813.664 899.31 810.807 893.803 802.739 888.252C801.609 887.509 801.897 888.006 800.939 886.832L801.361 883.982L799.813 882.618C796.57 882.987 794.458 885.925 791.336 887.535C772.688 901.142 757.532 915.354 737.667 927.798C688.693 958.476 633.942 978.985 576.68 987.181C563.602 989.053 549.75 991.405 536.548 991.502C521.174 990.253 507.759 990.79 492.313 990.966C470.946 990.605 448.403 986.73 427.558 982.162C354.264 966.101 291.554 933.002 234.958 883.839C229.983 894.025 230.288 895.632 223.233 904.828L224.404 895.334C211.584 903.253 203.11 894.318 194.236 885.281C191.674 882.671 187.842 877.766 188.035 874.036L188.589 873.707C189.518 874.904 190.128 875.649 191.147 876.762C191.965 875.568 191.937 873.257 192.061 871.687C191.542 870.2 190.012 867.504 189.223 866.01C191.022 859.084 192.876 857.017 197.417 851.444C195.571 847.898 193.621 844.31 192.092 840.625C190.59 837.393 181.878 826.778 179.14 823.147C172.762 814.579 166.598 805.853 160.654 796.978C131.289 752.469 112.377 701.396 102.327 649.211C98.6564 634.888 97.6898 616.054 95.3119 601.197C93.4611 602.573 92.8428 603.674 90.4566 602.643L88.2799 600.43C85.7048 599.227 82.6422 599.733 79.9898 598.138C75.6199 595.51 73.4371 590.83 69.3209 587.929C69.5154 588.066 65.8103 587.576 65.6941 587.558C62.7738 582.7 67.9656 558.144 69.5672 551.752C77.6251 553.608 84.6117 552.572 92.2859 554.195L94.2835 554.455C94.3266 552.016 94.5612 549.343 94.7243 546.89C96.6774 523.438 100.32 503.599 104.611 480.715C106.478 471.166 109.293 462.74 112.205 453.506C114.402 445.375 118.462 435.76 121.175 427.698C137.992 377.717 165.756 337.371 198.697 296.528C199.795 293.779 201.356 291.779 203.048 289.377C197.902 282.276 198.891 276.54 199.23 268.202C200.804 255.977 200.546 252.727 213.816 250.244C219.836 249.012 228.513 247.896 232.062 254.193C231.962 256.19 231.192 259.407 231.835 260.611C233.214 260.526 237.625 256.373 239.137 255.14C260.332 235.84 305.421 206.76 331.525 194.742C336.021 192.593 340.585 190.381 345.164 188.366C356.993 182.501 370.599 179.739 382.712 175.124C413.31 163.464 442.519 158.774 474.897 154.083C480.423 152.871 488.288 152.661 494.04 152.383C492.64 141.872 491.211 135.469 500.864 128.46C505.357 127.891 507.057 127.804 511.581 127.948Z"/><defs><linearGradient id="gradient_1" gradientUnits="userSpaceOnUse" x1="844.89893" y1="765.53601" x2="798.32886" y2="578.41876"><stop offset="0" stop-color="#83878B"/><stop offset="1" stop-color="#B8BABB"/></linearGradient></defs><path fill="url(#gradient_1)" transform="scale(0.621549 0.621549)" d="M796.565 576.909C832.962 576.131 873.676 575.603 909.944 576.873C909.224 629.839 899.46 678.187 879.233 727.237C874.364 739.042 869.245 751.755 863.051 762.924C861.687 766.217 861.245 766.953 859.242 769.881C860.065 771.403 860.608 772.694 861.861 773.88C847.039 800.021 833.997 816.674 814.817 839.192L812.374 836.713C810.998 838.935 800.112 849.274 797.835 851.475C791.623 847.06 780.792 834.943 775.664 829.205C772.381 827.066 750.946 804.04 748.451 800.351C745.935 797.11 739.304 790.758 736.263 787.765C729.179 780.916 722.21 773.949 715.358 766.868C746.629 729.103 769.904 699.326 782.016 650.536C785.276 637.403 787.009 625.612 789.823 612.78C791.102 601.35 792.345 592.141 792.929 580.474C792.901 579.165 793.018 578.727 793.241 577.424C794.588 576.465 794.454 576.819 796.565 576.909Z"/><defs><linearGradient id="gradient_2" gradientUnits="userSpaceOnUse" x1="829.14813" y1="836.29285" x2="742.67072" y2="635.52875"><stop offset="0" stop-color="#6D6870"/><stop offset="1" stop-color="#919697"/></linearGradient></defs><path fill="url(#gradient_2)" transform="scale(0.621549 0.621549)" d="M789.823 612.78C801.895 638.135 775.718 698.94 767.927 724.522C764.238 736.637 736.622 763.08 736.045 772.475L736.649 773.57C742.465 773.679 754.751 768.921 761.318 767.948C770.652 766.565 779.812 765.224 789.113 763.599C809.521 760.035 830.667 746.333 845.636 731.932C848.707 728.945 851.694 725.872 854.593 722.718L855.115 723.308C859.904 728.681 869.076 731.433 868.546 736.403C867.72 744.15 858.058 754.695 863.051 762.924C861.687 766.217 861.245 766.953 859.242 769.881C860.065 771.403 860.608 772.694 861.861 773.88C847.039 800.021 833.997 816.674 814.817 839.192L812.374 836.713C810.998 838.935 800.112 849.274 797.835 851.475C791.623 847.06 780.792 834.943 775.664 829.205C772.381 827.066 750.946 804.04 748.451 800.351C745.935 797.11 739.304 790.758 736.263 787.765C729.179 780.916 722.21 773.949 715.358 766.868C746.629 729.103 769.904 699.326 782.016 650.536C785.276 637.403 787.009 625.612 789.823 612.78Z"/><path fill="#575659" transform="scale(0.621549 0.621549)" d="M804.727 772.6C808.666 773.786 810.808 774.026 814.938 774.408C816.391 775.529 818.05 776.747 819.441 777.91C811.781 793.878 809.23 812.878 793.991 821.025C790.253 823.023 777.032 828.044 775.664 829.205C772.381 827.066 750.946 804.04 748.451 800.351C762.886 799.129 760.225 792.82 771.654 786.642C776.172 784.199 783.987 783.835 788.76 782.167C794.327 780.221 799.319 775.352 804.727 772.6Z"/><path fill="#222122" transform="scale(0.621549 0.621549)" d="M859.242 769.881C860.065 771.403 860.608 772.694 861.861 773.88C847.039 800.021 833.997 816.674 814.817 839.192L812.374 836.713C815.747 830.768 827.029 819.78 831.743 813.617C842.623 799.392 850.572 785.378 859.242 769.881Z"/><path fill="#A2A1A4" transform="scale(0.621549 0.621549)" d="M791.404 830.378C793.923 825.408 798.171 824.106 799.847 830.157C799.269 832.036 799.123 832.536 796.91 832.833L791.404 830.378Z"/><path fill="#575659" transform="scale(0.621549 0.621549)" d="M791.404 830.378L796.91 832.833L797.558 833.078C798.268 834.403 798.173 833.708 797.737 835.24C795.675 837.263 793.57 837.234 791.588 835.17C790.901 832.989 791.056 832.722 791.404 830.378Z"/><path fill="#B6BCBD" transform="scale(0.621549 0.621549)" d="M792.929 580.474C792.901 579.165 793.018 578.727 793.241 577.424C794.588 576.465 794.454 576.819 796.565 576.909L797.029 577.041C798.911 577.56 801.346 577.527 802.719 578.397C797.947 578.635 798.785 582.664 794.902 584.69C792.851 583.96 793.093 582.512 792.929 580.474Z"/><path fill="#868688" transform="scale(0.621549 0.621549)" d="M894.284 589.284C903.301 593.066 904.003 602.568 893.954 606.36C880.663 603.279 887.37 595.194 894.284 589.284Z"/><path fill="#B6BCBD" transform="scale(0.621549 0.621549)" d="M893.513 594.136C894.691 593.64 896.046 593.823 897.05 594.613C898.055 595.404 898.551 596.677 898.345 597.939C898.14 599.2 897.266 600.25 896.063 600.682C894.271 601.324 892.293 600.423 891.602 598.649C890.911 596.876 891.758 594.874 893.513 594.136Z"/><path fill="#6F6E74" transform="scale(0.621549 0.621549)" d="M809.339 593.063C811.411 592.847 813.62 592.566 815.472 593.779C816.529 594.467 817.183 595.629 817.222 596.89C817.269 598.7 816.167 600.646 815.111 602.051C813.118 603.453 810.892 604.613 808.43 603.758C807.015 603.265 805.853 602.234 805.195 600.888C804.566 599.584 804.49 598.082 804.984 596.722C805.787 594.557 807.358 593.862 809.339 593.063Z"/><path fill="#B6BCBD" transform="scale(0.621549 0.621549)" d="M809.339 593.063C811.411 592.847 813.62 592.566 815.472 593.779C816.529 594.467 817.183 595.629 817.222 596.89C817.269 598.7 816.167 600.646 815.111 602.051L814.429 601.064C811.943 600.173 810.449 599.837 809.013 597.693C808.753 595.246 808.86 595.959 809.929 593.408L809.339 593.063Z"/><path fill="#868688" transform="scale(0.621549 0.621549)" d="M809.339 593.063C811.411 592.847 813.62 592.566 815.472 593.779C816.529 594.467 817.183 595.629 817.222 596.89C817.269 598.7 816.167 600.646 815.111 602.051L814.429 601.064C817.687 598.187 815.139 593.452 809.929 593.408L809.339 593.063Z"/><path fill="#6F6E74" transform="scale(0.621549 0.621549)" d="M239.137 255.14C260.332 235.84 305.421 206.76 331.525 194.742C335.229 205.312 344.482 198.605 347.862 205.499C339.385 209.398 329.997 213.54 321.814 217.953C235.842 263.704 169.608 339.352 135.627 430.602C128.94 448.64 118.841 482.161 115.903 501.606C106.762 562.109 107.784 630.485 124.353 689.62C129.231 707.028 137.525 727.598 145.001 743.805C148.91 752.407 153.289 760.788 158.119 768.91C166.218 778.038 172.427 789.779 179.62 799.697C181.312 802.03 184.641 803.548 185.801 805.2C191.749 813.672 217.834 843.709 220.113 850.638C246.496 879.61 284.643 907.588 318.657 926.849C324.133 929.95 333.604 935.079 339.402 937.428C348.052 938.528 373.526 949.007 380.672 954.243C442.697 974.823 489.255 981.61 555.058 974.319C638.723 965.105 717.471 930.179 780.452 874.354C792.838 863.25 804.427 852.183 814.817 839.192C833.997 816.674 847.039 800.021 861.861 773.88C870.687 764.045 883.912 733.212 888.892 720.954C891.672 714.112 893.713 706.752 897.39 699.694C899.647 701.714 908.752 706.429 911.536 707.001C899.405 743.882 885.217 770.541 863.06 802.511C859.434 807.744 839.809 834.476 838.516 837.542C838.266 842.775 836.596 853.587 840.062 857.328L840.099 858.93C838.65 860.265 837.989 860.361 837.733 861.873C838.811 874.122 841.862 897.925 824.755 898.765C813.664 899.31 810.807 893.803 802.739 888.252C801.609 887.509 801.897 888.006 800.939 886.832L801.361 883.982L799.813 882.618C796.57 882.987 794.458 885.925 791.336 887.535C772.688 901.142 757.532 915.354 737.667 927.798C688.693 958.476 633.942 978.985 576.68 987.181C563.602 989.053 549.75 991.405 536.548 991.502C521.174 990.253 507.759 990.79 492.313 990.966C470.946 990.605 448.403 986.73 427.558 982.162C354.264 966.101 291.554 933.002 234.958 883.839C229.983 894.025 230.288 895.632 223.233 904.828L224.404 895.334C211.584 903.253 203.11 894.318 194.236 885.281C191.674 882.671 187.842 877.766 188.035 874.036L188.589 873.707C189.518 874.904 190.128 875.649 191.147 876.762C191.965 875.568 191.937 873.257 192.061 871.687C191.542 870.2 190.012 867.504 189.223 866.01C191.022 859.084 192.876 857.017 197.417 851.444C195.571 847.898 193.621 844.31 192.092 840.625C190.59 837.393 181.878 826.778 179.14 823.147C172.762 814.579 166.598 805.853 160.654 796.978C131.289 752.469 112.377 701.396 102.327 649.211C98.6564 634.888 97.6898 616.054 95.3119 601.197C93.4611 602.573 92.8428 603.674 90.4566 602.643L88.2799 600.43C85.7048 599.227 82.6422 599.733 79.9898 598.138C75.6199 595.51 73.4371 590.83 69.3209 587.929C69.5154 588.066 65.8103 587.576 65.6941 587.558C62.7738 582.7 67.9656 558.144 69.5672 551.752C77.6251 553.608 84.6117 552.572 92.2859 554.195L94.2835 554.455C94.3266 552.016 94.5612 549.343 94.7243 546.89C96.6774 523.438 100.32 503.599 104.611 480.715C106.478 471.166 109.293 462.74 112.205 453.506C114.402 445.375 118.462 435.76 121.175 427.698C137.992 377.717 165.756 337.371 198.697 296.528C199.795 293.779 201.356 291.779 203.048 289.377C197.902 282.276 198.891 276.54 199.23 268.202C200.804 255.977 200.546 252.727 213.816 250.244C219.836 249.012 228.513 247.896 232.062 254.193C231.962 256.19 231.192 259.407 231.835 260.611C233.214 260.526 237.625 256.373 239.137 255.14Z"/><path fill="#8E332D" transform="scale(0.621549 0.621549)" d="M192.092 840.625C193.928 842.551 198.799 847.812 200.7 849.159C202.015 850.672 203.735 852.777 205.143 854.122L206.026 855.532L207.821 857.187C211.41 860.872 214.936 864.557 218.713 868.054C224.045 873.751 229.388 878.457 234.958 883.839C229.983 894.025 230.288 895.632 223.233 904.828L224.404 895.334C211.584 903.253 203.11 894.318 194.236 885.281C191.674 882.671 187.842 877.766 188.035 874.036L188.589 873.707C189.518 874.904 190.128 875.649 191.147 876.762C191.965 875.568 191.937 873.257 192.061 871.687C191.542 870.2 190.012 867.504 189.223 866.01C191.022 859.084 192.876 857.017 197.417 851.444C195.571 847.898 193.621 844.31 192.092 840.625Z"/><path fill="#E18E6F" transform="scale(0.621549 0.621549)" d="M199.127 860.441C201.634 860.838 202.313 860.919 204.657 861.78C208.005 864.319 226.25 881.114 224.912 885.215C216.853 887.676 200.803 867.857 199.127 860.441Z"/><path fill="#6E2522" transform="scale(0.621549 0.621549)" d="M192.092 840.625C193.928 842.551 198.799 847.812 200.7 849.159C202.015 850.672 203.735 852.777 205.143 854.122L206.026 855.532C205.541 857.608 205.085 859.691 204.657 861.78C202.313 860.919 201.634 860.838 199.127 860.441C194.081 862.137 191.879 866.58 192.061 871.687C191.542 870.2 190.012 867.504 189.223 866.01C191.022 859.084 192.876 857.017 197.417 851.444C195.571 847.898 193.621 844.31 192.092 840.625Z"/><path fill="#8E332D" transform="scale(0.621549 0.621549)" d="M69.5672 551.752C77.6251 553.608 84.6117 552.572 92.2859 554.195L94.2835 554.455L94.7122 592.192C94.891 594.813 95.2804 598.671 95.3119 601.197C93.4611 602.573 92.8428 603.674 90.4566 602.643L88.2799 600.43C85.7048 599.227 82.6422 599.733 79.9898 598.138C75.6199 595.51 73.4371 590.83 69.3209 587.929C69.5154 588.066 65.8103 587.576 65.6941 587.558C62.7738 582.7 67.9656 558.144 69.5672 551.752Z"/><path fill="#6E2522" transform="scale(0.621549 0.621549)" d="M69.5672 551.752C77.6251 553.608 84.6117 552.572 92.2859 554.195C89.1545 554.438 89.8855 553.959 87.5483 555.509L84.6083 558.525C69.8004 566.705 74.8058 582.416 87.0491 590.337C88.1965 594.142 88.5562 596.366 88.2799 600.43C85.7048 599.227 82.6422 599.733 79.9898 598.138C75.6199 595.51 73.4371 590.83 69.3209 587.929C69.5154 588.066 65.8103 587.576 65.6941 587.558C62.7738 582.7 67.9656 558.144 69.5672 551.752Z"/><path fill="#E18E6F" transform="scale(0.621549 0.621549)" d="M87.5483 555.509C93.2951 563.154 91.7515 581.295 87.6717 589.504C81.8897 579.906 81.5949 570.022 84.4211 559.214L84.6083 558.525L87.5483 555.509Z"/><path fill="#222122" transform="scale(0.621549 0.621549)" d="M94.7122 592.192C94.891 594.813 95.2804 598.671 95.3119 601.197C93.4611 602.573 92.8428 603.674 90.4566 602.643C93.1852 599.367 90.2886 596.514 94.7122 592.192Z"/><path fill="#8E332D" transform="scale(0.621549 0.621549)" d="M213.816 250.244C219.836 249.012 228.513 247.896 232.062 254.193C231.962 256.19 231.192 259.407 231.835 260.611C233.214 260.526 237.625 256.373 239.137 255.14C235.995 262.094 217.372 275.582 212.046 282.683C210.313 284.994 200.841 295.53 198.697 296.528C199.795 293.779 201.356 291.779 203.048 289.377C197.902 282.276 198.891 276.54 199.23 268.202C200.804 255.977 200.546 252.727 213.816 250.244Z"/><path fill="#6E2522" transform="scale(0.621549 0.621549)" d="M199.23 268.202C200.804 255.977 200.546 252.727 213.816 250.244C217.453 252.852 223.64 253.086 228.222 253.609C218.388 259.129 209.836 261.77 199.23 268.202Z"/><path fill="#DDA28B" transform="scale(0.621549 0.621549)" d="M219.781 259.718C221.514 260.052 221.972 260.16 222.808 261.626C222.518 268.011 209.729 279.679 204.957 284.431C203.931 285.142 204.331 284.991 203.022 285.072C197.268 279.284 215.569 263.045 219.781 259.718Z"/><path fill="#6E2522" transform="scale(0.621549 0.621549)" d="M827.992 853.901C832.318 855.942 836.286 857.05 837.733 861.873C838.811 874.122 841.862 897.925 824.755 898.765C813.664 899.31 810.807 893.803 802.739 888.252C801.609 887.509 801.897 888.006 800.939 886.832C804.22 886.077 806.452 885.717 809.439 884.143C818.196 876.311 824.429 871.067 827.157 859.4C827.63 858.09 827.818 855.406 827.992 853.901Z"/><path fill="#8E332D" transform="scale(0.621549 0.621549)" d="M827.157 859.4L832.611 865.378C828.543 879.192 824.692 883.792 809.439 884.143C818.196 876.311 824.429 871.067 827.157 859.4Z"/><path fill="#575659" transform="scale(0.621549 0.621549)" d="M158.119 768.91C166.218 778.038 172.427 789.779 179.62 799.697C181.312 802.03 184.641 803.548 185.801 805.2C191.749 813.672 217.834 843.709 220.113 850.638C208.015 845.738 184.115 809.497 175.435 798.29C172.485 794.481 165.962 790.675 163.198 786.613C158.85 780.225 157.154 776.439 158.119 768.91Z"/><path fill="#868688" transform="scale(0.621549 0.621549)" d="M94.7243 546.89C98.708 544.377 98.4659 543.473 99.7366 538.833C98.8123 570.221 98.2984 599.588 102.743 630.74C103.257 634.345 104.679 647.235 102.327 649.211C98.6564 634.888 97.6898 616.054 95.3119 601.197C95.2804 598.671 94.891 594.813 94.7122 592.192L94.2835 554.455C94.3266 552.016 94.5612 549.343 94.7243 546.89Z"/><path fill="#8E332D" transform="scale(0.621549 0.621549)" d="M827.298 850.727L827.992 853.901C827.818 855.406 827.63 858.09 827.157 859.4C824.429 871.067 818.196 876.311 809.439 884.143C806.452 885.717 804.22 886.077 800.939 886.832L801.361 883.982L799.813 882.618C796.57 882.987 794.458 885.925 791.336 887.535C792.131 885.696 823.26 854.781 827.298 850.727Z"/><path fill="#E18E6F" transform="scale(0.621549 0.621549)" d="M827.157 859.4C824.429 871.067 818.196 876.311 809.439 884.143C806.452 885.717 804.22 886.077 800.939 886.832L801.361 883.982C810.395 876.928 817.008 863.809 827.157 859.4Z"/><path fill="#A2A1A4" transform="scale(0.621549 0.621549)" d="M112.205 453.506L114.234 456.117L115.073 456.052L116.915 453.89C117.712 455.621 109.202 481.622 108.2 485.064L107.396 484.731C106.865 482.883 105.917 482.132 104.611 480.715C106.478 471.166 109.293 462.74 112.205 453.506Z"/><path fill="#4D201E" transform="scale(0.621549 0.621549)" d="M827.298 850.727C830.755 847.052 835.183 841.504 838.516 837.542C838.266 842.775 836.596 853.587 840.062 857.328L840.099 858.93C838.65 860.265 837.989 860.361 837.733 861.873C836.286 857.05 832.318 855.942 827.992 853.901L827.298 850.727Z"/><path fill="#575659" transform="scale(0.621549 0.621549)" d="M339.402 937.428C348.052 938.528 373.526 949.007 380.672 954.243C368.857 952.544 348.293 945.247 339.402 937.428Z"/><path fill="#868688" transform="scale(0.621549 0.621549)" d="M207.821 857.187C212.401 857.214 219.322 862.894 218.713 868.054C214.936 864.557 211.41 860.872 207.821 857.187Z"/><path fill="#A2A1A4" transform="scale(0.621549 0.621549)" d="M200.7 849.159C203.217 848.828 204.91 848.343 207.272 849.172L208.207 850.103C207.81 851.975 206.853 852.996 205.143 854.122C203.735 852.777 202.015 850.672 200.7 849.159Z"/><path fill="#868688" transform="scale(0.621549 0.621549)" d="M107.396 484.731L108.2 485.064C107.963 487.037 107.825 490.12 106.498 491.486C106.006 489.546 106.915 486.797 107.396 484.731Z"/><path fill="#575659" transform="scale(0.621549 0.621549)" d="M509.462 981.236C519.63 980.865 540.385 980.821 550.143 982.636C547.527 983.483 522.172 983.198 516.783 983.493C512.117 983.645 478.271 983.792 475.913 982.654C484.41 981.155 500.185 981.42 509.462 981.236Z"/><path fill="#A2A1A4" transform="scale(0.621549 0.621549)" d="M851.806 346.449C857.102 346.505 866.541 350.118 869.19 347.715C900.543 393.946 917.083 448.126 927.555 502.715C930.018 515.554 930.391 529.643 932.505 542.054C932.904 544.335 933.258 546.624 933.565 548.919C940.187 549.632 943.962 549.625 948.679 555.195C950.545 557.397 952.15 560.448 954.194 562.347L955.885 563.826L956.869 563.506C957.554 561.852 957.971 560.488 958.505 558.776C962.902 563.343 965.076 566.577 964.839 573.473C964.508 583.149 960.49 593.458 953.36 600.104C952.986 600.45 952.609 600.792 952.228 601.13C954.824 596.379 956.416 593.32 958.187 588.196C952.874 592.965 950.045 596.466 942.748 597.451C941.726 596.639 940.772 595.797 939.785 594.945C936.839 593.83 935.551 596.275 933.455 598.416C933.168 601.63 932.883 604.333 932.957 607.568C928.951 644.594 922.006 671.846 911.536 707.001C908.752 706.429 899.647 701.714 897.39 699.694C898.499 697.233 899.516 694.387 900.273 691.77C922.768 614.016 924.166 528.963 901.231 451.148C893.953 427.496 883.256 404.986 873.129 382.455C870.188 375.912 865.876 369.451 861.976 363.407C858.326 357.75 854.975 352.385 851.806 346.449Z"/><path fill="#8E332D" transform="scale(0.621549 0.621549)" d="M932.505 542.054C932.904 544.335 933.258 546.624 933.565 548.919C940.187 549.632 943.962 549.625 948.679 555.195C950.545 557.397 952.15 560.448 954.194 562.347L955.885 563.826L956.869 563.506C957.554 561.852 957.971 560.488 958.505 558.776C962.902 563.343 965.076 566.577 964.839 573.473C964.508 583.149 960.49 593.458 953.36 600.104C952.986 600.45 952.609 600.792 952.228 601.13C954.824 596.379 956.416 593.32 958.187 588.196C952.874 592.965 950.045 596.466 942.748 597.451C941.726 596.639 940.772 595.797 939.785 594.945C936.839 593.83 935.551 596.275 933.455 598.416C933.454 585.495 933.645 572.515 932.968 559.615C932.658 553.72 932.409 547.963 932.505 542.054Z"/><path fill="#6E2522" transform="scale(0.621549 0.621549)" d="M954.194 562.347L955.885 563.826L956.869 563.506C957.554 561.852 957.971 560.488 958.505 558.776C962.902 563.343 965.076 566.577 964.839 573.473C964.508 583.149 960.49 593.458 953.36 600.104C952.986 600.45 952.609 600.792 952.228 601.13C954.824 596.379 956.416 593.32 958.187 588.196C952.874 592.965 950.045 596.466 942.748 597.451C941.726 596.639 940.772 595.797 939.785 594.945L940.049 594.331C941.104 592.334 942.228 589.574 943.167 587.457C955.497 581.555 953.095 573.556 954.194 562.347Z"/><path fill="#DDA28B" transform="scale(0.621549 0.621549)" d="M940.049 594.331C938.693 588.151 936.737 564.514 939.45 558.817C940.903 557.877 940.1 558.11 941.989 558.31C947.861 563.166 945.325 580.752 943.167 587.457C942.228 589.574 941.104 592.334 940.049 594.331Z"/><defs><linearGradient id="gradient_3" gradientUnits="userSpaceOnUse" x1="726.07489" y1="275.05783" x2="764.82123" y2="233.25418"><stop offset="0" stop-color="#C1C0C0"/><stop offset="1" stop-color="#F1F1F1"/></linearGradient></defs><path fill="url(#gradient_3)" transform="scale(0.621549 0.621549)" d="M618.058 165.744C665.173 178.347 710.044 198.191 751.065 224.567C761.735 231.529 772.144 241.271 781.732 247.379C787.273 249.914 791.261 253.515 795.863 257.4C797.706 256.482 801.423 254.5 803.221 253.917C815.281 248.962 825.128 248.827 835.626 257.529L837.156 256.652C838.779 258.643 838.878 298.934 839.15 304.755C841.49 309.701 847.964 317.331 851.278 321.998C857.258 330.422 863.722 338.957 869.19 347.715C866.541 350.118 857.102 346.505 851.806 346.449C851.6 346.115 851.391 345.782 851.18 345.451C842.9 332.432 831.983 319.119 821.966 307.573C782.586 262.18 732.643 226.008 677.35 202.492C662.949 196.367 641.7 188.084 626.34 184.695C624.024 180.561 617.151 169.69 618.058 165.744Z"/><defs><linearGradient id="gradient_4" gradientUnits="userSpaceOnUse" x1="840.58441" y1="270.60205" x2="806.70483" y2="282.56152"><stop offset="0" stop-color="#692422"/><stop offset="1" stop-color="#9C3A39"/></linearGradient></defs><path fill="url(#gradient_4)" transform="scale(0.621549 0.621549)" d="M803.221 253.917C815.281 248.962 825.128 248.827 835.626 257.529L837.156 256.652C838.779 258.643 838.878 298.934 839.15 304.755C826.964 291.692 811.337 275.209 798.768 263.207C800.494 259.905 801.778 257.342 803.221 253.917Z"/><path fill="#DDA28B" transform="scale(0.621549 0.621549)" d="M804.937 261.323C818.101 261.493 826.126 273.718 829.765 285.099C824.152 283.105 809.409 266.545 804.937 261.323Z"/><path fill="#6E2522" transform="scale(0.621549 0.621549)" d="M781.732 247.379C787.273 249.914 791.261 253.515 795.863 257.4C797.706 256.482 801.423 254.5 803.221 253.917C801.778 257.342 800.494 259.905 798.768 263.207C793.713 258.628 786 252.203 781.732 247.379Z"/><path fill="#A2A1A4" transform="scale(0.621549 0.621549)" d="M511.581 127.948C517.175 127.583 522.234 126.645 527.381 128.712C529.226 130.097 531.844 131.941 533.51 133.43L534.269 144.56C536.577 146.75 538.505 148.517 540.542 150.973C537.601 150.82 535.704 150.458 533.01 151.604L533.203 152.301C535.404 153.24 536.951 153.247 539.317 153.493C558.866 154.543 599.943 160.27 618.058 165.744C617.151 169.69 624.024 180.561 626.34 184.695C548.666 162.883 466.293 164.37 389.457 188.972C377.556 192.886 359.064 199.546 347.862 205.499C344.482 198.605 335.229 205.312 331.525 194.742C336.021 192.593 340.585 190.381 345.164 188.366C356.993 182.501 370.599 179.739 382.712 175.124C413.31 163.464 442.519 158.774 474.897 154.083C480.423 152.871 488.288 152.661 494.04 152.383C492.64 141.872 491.211 135.469 500.864 128.46C505.357 127.891 507.057 127.804 511.581 127.948Z"/><path fill="#6E2522" transform="scale(0.621549 0.621549)" d="M511.581 127.948C517.175 127.583 522.234 126.645 527.381 128.712C529.226 130.097 531.844 131.941 533.51 133.43L534.269 144.56C536.577 146.75 538.505 148.517 540.542 150.973C537.601 150.82 535.704 150.458 533.01 151.604L533.203 152.301C535.404 153.24 536.951 153.247 539.317 153.493C518.679 154.15 495.432 154.702 474.897 154.083C480.423 152.871 488.288 152.661 494.04 152.383C492.64 141.872 491.211 135.469 500.864 128.46C505.357 127.891 507.057 127.804 511.581 127.948Z"/><path fill="#8E332D" transform="scale(0.621549 0.621549)" d="M511.581 127.948C517.175 127.583 522.234 126.645 527.381 128.712C528.202 134.783 529.588 139.461 531.551 145.269C519.465 140.597 512.61 139.472 500.324 144.937C498.856 145.597 497.391 146.267 495.931 146.946C497.713 138.386 500.803 134.384 506.802 128.587C508.556 128.585 510.149 128.824 511.581 127.948Z"/><path fill="#DDA28B" transform="scale(0.621549 0.621549)" d="M495.931 146.946C497.391 146.267 498.856 145.597 500.324 144.937C512.61 139.472 519.465 140.597 531.551 145.269L536.461 149.214C526.494 149.273 504.955 149.895 496.055 148.486L495.518 147.823L495.931 146.946Z"/><defs><linearGradient id="gradient_5" gradientUnits="userSpaceOnUse" x1="378.56235" y1="794.79462" x2="503.31567" y2="591.04285"><stop offset="0" stop-color="#504F55"/><stop offset="1" stop-color="#858486"/></linearGradient></defs><path fill="url(#gradient_5)" transform="scale(0.621549 0.621549)" d="M411.119 333.676C410.36 334.655 410.246 334.809 409.056 335.17L408.747 336.065C411.174 338.362 415.156 342.887 417.445 344.345C422.459 347.542 428.066 350.474 433.233 353.533C443.992 359.959 454.664 366.53 465.246 373.244C470.405 376.58 474.98 381.314 480.028 384.796C483.981 387.523 489.278 384.47 494.453 385.511C503.681 385.053 511.238 384.338 520.654 384.273L527.132 384.564C536.712 386.024 548.328 387.565 557.657 389.781C571.391 393.043 586.03 398.978 599.288 404.07C617.176 412.439 623.125 416.037 638.489 428.465L641.113 430.615C643.746 428.378 648.634 426.664 651.953 425.404L650.79 422.404C647.185 400.537 661.174 382.009 684.856 392.702L686.854 393.845C697.942 390.453 702.507 390.651 707.98 380.637C782.626 455.8 807.026 567.358 770.571 666.809C748.733 726.384 706.813 776.489 652.021 808.507C574.541 853.782 479.751 858.088 398.484 820.024C317.216 781.96 259.856 706.391 245.062 617.896C227.693 514.008 271.678 409.402 358.075 349.124C359.223 353.711 360.204 355.984 361.317 361.437C374.628 351.873 396.112 339.944 411.119 333.676Z"/><defs><linearGradient id="gradient_6" gradientUnits="userSpaceOnUse" x1="552.15125" y1="699.9942" x2="484.3345" y2="429.0791"><stop offset="0" stop-color="#979598"/><stop offset="1" stop-color="#BAB8B9"/></linearGradient></defs><path fill="url(#gradient_6)" transform="scale(0.621549 0.621549)" d="M520.654 384.273L527.132 384.564C536.712 386.024 548.328 387.565 557.657 389.781C571.391 393.043 586.03 398.978 599.288 404.07C617.176 412.439 623.125 416.037 638.489 428.465L641.113 430.615C660.52 449.021 665.357 456.266 679.162 477.848C682.962 485.455 687.073 493.321 690.145 501.216C688.893 502.351 687.951 503.896 687.38 505.478C705.254 557.017 703.004 604.242 679.089 653.661L678.695 654.467C674.609 663.079 663.61 681.753 656.984 688.315C655.129 688.975 654.456 689.525 652.7 689.244C652.716 689.054 652.899 687.13 652.997 687.329C649.051 679.306 642.462 682.333 638.137 673.219L635.585 676.491C633.474 673.738 632.411 671.945 629.05 670.938L628.664 671.057C626.868 668.99 621.493 666.33 619 665.112C616.375 667.445 613.655 669.703 611.406 672.391C608.976 671.383 605.791 672.454 603.146 673.041C596.24 677.859 590.293 681.898 583.115 686.278C579.817 692.019 576.194 695.039 569.714 696.928C566.285 697.844 563.246 698.706 559.733 699.268C552.83 700.17 544.896 703.813 537.544 704.773C487.943 711.247 462.405 701.015 424.271 672.807C422.707 671.764 420.671 670.14 419.117 668.979L418.15 670.698C410.787 664.563 403.66 658.077 400.609 672.027C398.56 670.727 394.877 666.119 393.391 664.041C380.091 645.451 371.687 623.117 366.235 601.065C364.851 595.468 365.415 585.941 363.228 580.771C360.334 576.037 361.112 569.226 361.392 563.759C362.007 537.295 374.392 503.783 389.3 482.425C392.465 477.891 396.549 473.886 399.627 469.092L399.244 467.585L399.22 467.331C396.825 466.71 394.63 462.08 393.313 459.846C385.763 456.345 383.206 455.518 379.648 447.865C383.634 443.695 388.222 438.785 392.662 435.163C426.591 402.399 475.036 390.054 520.953 388.746C520.791 387.326 520.736 385.717 520.654 384.273Z"/><defs><linearGradient id="gradient_7" gradientUnits="userSpaceOnUse" x1="555.4187" y1="448.66177" x2="474.77734" y2="689.74799"><stop offset="0" stop-color="#353338"/><stop offset="1" stop-color="#4F4D52"/></linearGradient></defs><path fill="url(#gradient_7)" transform="scale(0.621549 0.621549)" d="M496.251 442.748C534.786 438.234 565.301 446.029 596.177 470.206C597.791 471.482 599.38 472.789 600.943 474.128C608.901 481.904 614.346 487.96 621.149 496.894C647.761 539.439 651.944 587.313 627.189 631.845C610.7 661.668 582.893 683.597 550.043 692.685C517.26 701.851 482.178 697.644 452.494 680.986C422.561 664.152 400.621 636.032 391.576 602.908C382.726 569.792 387.461 534.515 404.728 504.902C422.019 474.997 452.184 453.089 485.676 444.981C489.187 444.131 492.715 443.699 496.251 442.748Z"/><defs><linearGradient id="gradient_8" gradientUnits="userSpaceOnUse" x1="468.02444" y1="680.6579" x2="549.42218" y2="483.70801"><stop offset="0" stop-color="#646066"/><stop offset="1" stop-color="#849497"/></linearGradient></defs><path fill="url(#gradient_8)" transform="scale(0.621549 0.621549)" d="M475.527 454.266C507.42 443.622 542.243 446.133 572.278 461.242C589.071 469.659 602.702 481.484 613.868 496.483C615.476 498.643 620.534 505.667 621.214 508.219C626.675 514.49 633.588 536.107 635.206 544.489C640.564 572.242 636.034 605.256 620.367 629.029C610.046 634.054 589.274 640.559 578.602 642.402C556.37 646.24 532.799 641.601 511.883 634.225C505.957 632.134 497.981 632.987 491.514 629.316C473.593 619.029 454.47 603.224 442.354 586.362C433.183 573.598 431.864 554.589 417.293 544.574C411.892 548.784 409.857 553.509 406.964 559.58C412.736 572.011 418.549 584.551 423.646 597.29C425.585 602.135 425.74 611.278 428.615 615.283C432.873 616.603 437.167 624.247 441.042 627.28C443.773 629.968 446.862 631.96 449.908 634.244C468.513 648.201 491.118 656.813 510.448 668.895C522.742 667.348 540.276 669.489 551.905 673.79C559.386 672.247 569.275 668.164 576.602 665.34L581.911 672.608C538.305 695.866 499.992 699.464 454.996 675.657C426.738 660.986 405.651 635.47 396.569 604.959C387.376 574.869 390.443 542.366 405.102 514.525C420.082 486.62 444.891 463.62 475.527 454.266Z"/><path fill="#B6BCBD" transform="scale(0.621549 0.621549)" d="M475.527 454.266C507.42 443.622 542.243 446.133 572.278 461.242C589.071 469.659 602.702 481.484 613.868 496.483C615.476 498.643 620.534 505.667 621.214 508.219C621.618 511.148 622.986 513.528 624.286 516.173C616.269 516.223 616.652 509.33 611.366 510.641C610.364 511.794 610.537 512.931 610.459 514.517C613.672 524.18 614.642 550.544 612.451 560.939C611.231 566.726 595.29 579.54 589.735 582.331C579.482 580.978 569.659 581.097 559.711 580.277C518.191 576.529 485.743 567.252 471.73 523.291C463.864 498.616 466.556 474.016 494.148 464.547C492.147 463.591 490.862 460.904 489.033 459.695C486.759 458.192 482.495 459.844 480.23 458.12C480.165 458.071 478.9 455.396 478.926 455.399C476.396 455.118 477.505 455.799 475.527 454.266Z"/><path fill="#A2A1A4" transform="scale(0.621549 0.621549)" d="M475.527 454.266C507.42 443.622 542.243 446.133 572.278 461.242C589.071 469.659 602.702 481.484 613.868 496.483C615.476 498.643 620.534 505.667 621.214 508.219C621.618 511.148 622.986 513.528 624.286 516.173C616.269 516.223 616.652 509.33 611.366 510.641C610.364 511.794 610.537 512.931 610.459 514.517C609.423 511.595 607.669 507.344 605.814 504.8C591.411 484.698 569.459 459.068 543.469 455.993C530.91 454.508 506.485 460.485 494.148 464.547C492.147 463.591 490.862 460.904 489.033 459.695C486.759 458.192 482.495 459.844 480.23 458.12C480.165 458.071 478.9 455.396 478.926 455.399C476.396 455.118 477.505 455.799 475.527 454.266Z"/><path fill="#FCFCFB" transform="scale(0.621549 0.621549)" d="M544.29 482.082C558.875 481.229 575.269 490.597 582.477 503.047C591.257 518.21 582.68 528.292 570.09 535.445C553.139 538.832 524.345 513.156 530.454 495.146C532.782 488.281 538.388 485.029 544.29 482.082Z"/><defs><linearGradient id="gradient_9" gradientUnits="userSpaceOnUse" x1="515.46899" y1="563.0094" x2="643.39258" y2="441.64307"><stop offset="0" stop-color="#B0AEAF"/><stop offset="1" stop-color="#DADADA"/></linearGradient></defs><path fill="url(#gradient_9)" transform="scale(0.621549 0.621549)" d="M520.654 384.273L527.132 384.564C536.712 386.024 548.328 387.565 557.657 389.781C571.391 393.043 586.03 398.978 599.288 404.07C617.176 412.439 623.125 416.037 638.489 428.465L641.113 430.615C660.52 449.021 665.357 456.266 679.162 477.848C682.962 485.455 687.073 493.321 690.145 501.216C688.893 502.351 687.951 503.896 687.38 505.478C705.254 557.017 703.004 604.242 679.089 653.661L678.695 654.467C678.113 654.166 675.022 652.707 675.287 651.869C680.487 635.335 686.993 619.58 690.354 602.449C697.972 563.616 686.38 529.845 674.93 493.346C670.099 489.272 668.062 487.635 662.08 485.843C648.77 476.315 641.994 481.312 628.759 465.885C626.088 463.402 625.115 462.092 622.894 459.219C616.954 460.82 615.434 461.488 611.491 465.895C608.182 468.616 604.492 471.82 600.943 474.128C599.38 472.789 597.791 471.482 596.177 470.206C565.301 446.029 534.786 438.234 496.251 442.748L495.373 442.25C498.258 441.454 499.392 441.88 501.657 441.476C521.756 438.044 543.759 441.941 562.537 449.436C564.381 450.172 568.458 451.322 569.788 452.044C568.955 448.475 550.84 424.437 548.948 424.001C539.589 421.844 537.163 423.474 527.34 418.575L526.123 419.009L525.306 419.019L526.597 417.4L526.485 416.968C524.049 416.744 521.698 416.653 519.258 416.544L507.7 416.881C489.974 418.21 475.596 419.937 458.703 426.481C454.377 428.369 450.77 429.919 446.616 432.211C429.32 440.711 411.657 452.312 399.22 467.331C396.825 466.71 394.63 462.08 393.313 459.846C385.763 456.345 383.206 455.518 379.648 447.865C383.634 443.695 388.222 438.785 392.662 435.163C426.591 402.399 475.036 390.054 520.953 388.746C520.791 387.326 520.736 385.717 520.654 384.273Z"/><path fill="#A2A1A4" transform="scale(0.621549 0.621549)" d="M392.662 435.163C394.125 435.898 396.046 436.595 397.552 435.737C403.051 432.605 407.792 427.66 413.087 424.157C426.25 415.449 443.259 408.149 458.571 404.291C457.282 412.974 457.5 417.858 458.703 426.481C454.377 428.369 450.77 429.919 446.616 432.211C429.32 440.711 411.657 452.312 399.22 467.331C396.825 466.71 394.63 462.08 393.313 459.846C385.763 456.345 383.206 455.518 379.648 447.865C383.634 443.695 388.222 438.785 392.662 435.163Z"/><defs><linearGradient id="gradient_10" gradientUnits="userSpaceOnUse" x1="637.66516" y1="496.22809" x2="648.9101" y2="411.80359"><stop offset="0" stop-color="#575658"/><stop offset="1" stop-color="#7B7A7B"/></linearGradient></defs><path fill="url(#gradient_10)" transform="scale(0.621549 0.621549)" d="M599.288 404.07C617.176 412.439 623.125 416.037 638.489 428.465L641.113 430.615C660.52 449.021 665.357 456.266 679.162 477.848C682.962 485.455 687.073 493.321 690.145 501.216C688.893 502.351 687.951 503.896 687.38 505.478C686.826 503.369 681.179 492.703 679.885 490.279C665.788 463.883 648.577 442.009 624.421 424.139C615.745 417.72 604.466 413.382 597.45 407.534L596.891 407.065L599.288 404.07Z"/><defs><linearGradient id="gradient_11" gradientUnits="userSpaceOnUse" x1="576.81897" y1="380.3457" x2="541.0224" y2="410.31647"><stop offset="0" stop-color="black"/><stop offset="1" stop-color="#2C3335"/></linearGradient></defs><path fill="url(#gradient_11)" transform="scale(0.621549 0.621549)" d="M520.654 384.273L527.132 384.564C536.712 386.024 548.328 387.565 557.657 389.781C571.391 393.043 586.03 398.978 599.288 404.07L596.891 407.065C571.809 395.197 548.669 389.877 520.953 388.746C520.791 387.326 520.736 385.717 520.654 384.273Z"/><defs><linearGradient id="gradient_12" gradientUnits="userSpaceOnUse" x1="550.86481" y1="408.15933" x2="564.18176" y2="445.05746"><stop offset="0" stop-color="#9D9EA0"/><stop offset="1" stop-color="#BFBBB9"/></linearGradient></defs><path fill="url(#gradient_12)" transform="scale(0.621549 0.621549)" d="M519.258 416.544C537.641 413.963 576.956 426.86 591.719 438.304C581.465 434.892 572.835 429.515 562.537 426.315C552.818 423.295 543.115 422.671 533.319 420.431C530.726 419.838 528.715 418.223 526.597 417.4L526.485 416.968C524.049 416.744 521.698 416.653 519.258 416.544Z"/><defs><linearGradient id="gradient_13" gradientUnits="userSpaceOnUse" x1="607.13525" y1="661.72003" x2="698.7038" y2="507.29208"><stop offset="0" stop-color="#848385"/><stop offset="1" stop-color="#AAA9A9"/></linearGradient></defs><path fill="url(#gradient_13)" transform="scale(0.621549 0.621549)" d="M662.08 485.843C668.062 487.635 670.099 489.272 674.93 493.346C686.38 529.845 697.972 563.616 690.354 602.449C686.993 619.58 680.487 635.335 675.287 651.869C675.022 652.707 678.113 654.166 678.695 654.467C674.609 663.079 663.61 681.753 656.984 688.315C655.129 688.975 654.456 689.525 652.7 689.244C652.716 689.054 652.899 687.13 652.997 687.329C649.051 679.306 642.462 682.333 638.137 673.219L635.585 676.491C633.474 673.738 632.411 671.945 629.05 670.938C630.458 665.468 638.677 658.358 642.449 653.585C660.337 630.946 665.848 605.169 666.954 577.189L667.399 566.66L666.835 562.035C666.535 559.078 666.3 556.629 665.731 553.705L664.643 548.16C659.556 520.622 655.71 512.088 642.01 488.21C646.956 487.172 656.723 486.415 662.08 485.843Z"/><defs><linearGradient id="gradient_14" gradientUnits="userSpaceOnUse" x1="636.20142" y1="607.22137" x2="667.47833" y2="629.25555"><stop offset="0" stop-color="#695759"/><stop offset="1" stop-color="#585A5C"/></linearGradient></defs><path fill="url(#gradient_14)" transform="scale(0.621549 0.621549)" d="M669.728 560.736C670.278 570.488 669.521 579.726 668.399 589.383C664.64 621.72 655.718 646.126 638.137 673.219L635.585 676.491C633.474 673.738 632.411 671.945 629.05 670.938C630.458 665.468 638.677 658.358 642.449 653.585C660.337 630.946 665.848 605.169 666.954 577.189L667.399 566.66C667.442 562.834 667.036 563.143 669.728 560.736Z"/><path fill="#84737B" transform="scale(0.621549 0.621549)" d="M664.643 548.16L666.512 546.697L667.469 546.938C669.458 550.439 669.432 556.499 669.728 560.736C667.036 563.143 667.442 562.834 667.399 566.66L666.835 562.035C666.535 559.078 666.3 556.629 665.731 553.705L664.643 548.16Z"/><defs><linearGradient id="gradient_15" gradientUnits="userSpaceOnUse" x1="360.37567" y1="563.12109" x2="464.82489" y2="545.54498"><stop offset="0" stop-color="#545254"/><stop offset="1" stop-color="#7D797E"/></linearGradient></defs><path fill="url(#gradient_15)" transform="scale(0.621549 0.621549)" d="M446.616 432.211C448.301 435.736 441.699 453.012 440.476 458.84C433.434 463.977 432.21 467.649 426.985 472.056C403.375 491.971 387.202 518.287 381.985 549.353C375.673 586.931 380.488 618.174 403.444 649.897C407.222 655.193 411.548 660.076 416.35 664.465L419.117 668.979L418.15 670.698C410.787 664.563 403.66 658.077 400.609 672.027C398.56 670.727 394.877 666.119 393.391 664.041C380.091 645.451 371.687 623.117 366.235 601.065C364.851 595.468 365.415 585.941 363.228 580.771C360.334 576.037 361.112 569.226 361.392 563.759C362.007 537.295 374.392 503.783 389.3 482.425C392.465 477.891 396.549 473.886 399.627 469.092L399.244 467.585L399.22 467.331C411.657 452.312 429.32 440.711 446.616 432.211Z"/><path fill="#D2CAC0" transform="scale(0.621549 0.621549)" d="M361.392 563.759C365.492 563.657 369.78 563.482 373.864 563.532C376.058 570.978 375.879 572.694 375.636 580.645L363.228 580.771C360.334 576.037 361.112 569.226 361.392 563.759Z"/><path fill="#D2CAC0" transform="scale(0.621549 0.621549)" d="M412.061 458.412C418.795 458.196 419.523 461.47 420.809 467.241C419.525 473.131 418.789 474.996 413.04 477.177C407.9 475.854 406.219 472.03 403.564 467.676C406.495 463.039 407.365 461.412 412.061 458.412Z"/><path fill="#868688" transform="scale(0.621549 0.621549)" d="M661.033 562.101L666.835 562.035L667.399 566.66L666.954 577.189C665.848 605.169 660.337 630.946 642.449 653.585C638.677 658.358 630.458 665.468 629.05 670.938L628.664 671.057C626.868 668.99 621.493 666.33 619 665.112C637.064 643.709 649.369 618.86 653.687 590.678C654.23 587.139 653.684 576.284 653.832 571.706C653.669 567.845 653.245 565.461 654.995 561.987C657.112 562.431 658.872 562.208 661.033 562.101Z"/><path fill="#D2CAC0" transform="scale(0.621549 0.621549)" d="M661.033 562.101L666.835 562.035L667.399 566.66L666.954 577.189C662.833 577.424 658.794 578.459 655.294 576.817C653.826 574.954 654.168 574.306 653.832 571.706C653.669 567.845 653.245 565.461 654.995 561.987C657.112 562.431 658.872 562.208 661.033 562.101Z"/><path fill="#868688" transform="scale(0.621549 0.621549)" d="M458.703 426.481C475.596 419.937 489.974 418.21 507.7 416.881L507.151 417.926C506.107 421.751 506.862 432.582 507.118 436.986C481.268 437.365 461.808 443.863 440.476 458.84C441.699 453.012 448.301 435.736 446.616 432.211C450.77 429.919 454.377 428.369 458.703 426.481Z"/><path fill="#D2CAC0" transform="scale(0.621549 0.621549)" d="M628.759 465.885C641.994 481.312 648.77 476.315 662.08 485.843C656.723 486.415 646.956 487.172 642.01 488.21C655.71 512.088 659.556 520.622 664.643 548.16L665.731 553.705C666.3 556.629 666.535 559.078 666.835 562.035L661.033 562.101C660.579 560.098 660.509 559.695 660.458 557.655L661.186 557.106C661.652 554.054 660.179 546.178 659.579 542.949C654.293 514.536 639.684 494.749 623.484 471.867C625.326 469.427 626.644 468.074 628.759 465.885Z"/><path fill="#868688" transform="scale(0.621549 0.621549)" d="M665.731 553.705C666.3 556.629 666.535 559.078 666.835 562.035L661.033 562.101C660.579 560.098 660.509 559.695 660.458 557.655L661.186 557.106C661.815 558.035 661.791 557.919 662.628 558.698L663.808 558.439C665.173 556.726 665.188 555.905 665.731 553.705Z"/><path fill="#575659" transform="scale(0.621549 0.621549)" d="M603.146 673.041C619.212 655.013 636.738 636.378 645.62 613.598C650.375 601.091 652.519 587.743 651.919 574.376C651.775 570.56 650.276 562.051 652.107 559.647C653.814 560.16 653.579 560.41 654.995 561.987C653.245 565.461 653.669 567.845 653.832 571.706C653.684 576.284 654.23 587.139 653.687 590.678C649.369 618.86 637.064 643.709 619 665.112C616.375 667.445 613.655 669.703 611.406 672.391C608.976 671.383 605.791 672.454 603.146 673.041Z"/><path fill="#D2CAC0" transform="scale(0.621549 0.621549)" d="M611.491 465.895C626.783 459.347 621.401 474.168 617.372 481.685C620.527 486.183 625.795 491.807 621.149 496.894C614.346 487.96 608.901 481.904 600.943 474.128C604.492 471.82 608.182 468.616 611.491 465.895Z"/><path fill="#D2CAC0" transform="scale(0.621549 0.621549)" d="M507.7 416.881L519.258 416.544C521.698 416.653 524.049 416.744 526.485 416.968L526.597 417.4L525.306 419.019L526.123 419.009C519.904 425.185 527.555 427.075 517.903 433.831C518.501 434.779 518.163 434.334 518.918 435.168L518.725 435.529L519.385 435.786C520.201 436.099 520.925 436.346 521.752 436.619C517.291 438.011 511.847 437.304 507.118 436.986C506.862 432.582 506.107 421.751 507.151 417.926L507.7 416.881Z"/><path fill="#A2A1A4" transform="scale(0.621549 0.621549)" d="M507.151 417.926L507.368 434.515C512.752 433.621 514.181 432.484 518.725 435.529L519.385 435.786C520.201 436.099 520.925 436.346 521.752 436.619C517.291 438.011 511.847 437.304 507.118 436.986C506.862 432.582 506.107 421.751 507.151 417.926Z"/><path fill="#868688" transform="scale(0.621549 0.621549)" d="M519.258 416.544C521.698 416.653 524.049 416.744 526.485 416.968L526.597 417.4L525.306 419.019L523.996 420.037C521.965 420.105 521.927 419.613 519.812 418.408L519.258 416.544Z"/><path fill="#868688" transform="scale(0.621549 0.621549)" d="M507.7 416.881L519.258 416.544L519.812 418.408C516.087 417.512 511.068 417.823 507.151 417.926L507.7 416.881Z"/><path fill="#575659" transform="scale(0.621549 0.621549)" d="M570.697 692.046C574.375 689.984 579.19 688.01 583.115 686.278C579.817 692.019 576.194 695.039 569.714 696.928L570.697 692.046Z"/><path fill="#6F6E74" transform="scale(0.621549 0.621549)" d="M562.477 694.079C565.885 693.463 567.398 693.125 570.697 692.046L569.714 696.928C566.285 697.844 563.246 698.706 559.733 699.268C560.459 697.414 561.479 695.805 562.477 694.079Z"/><path fill="#84737B" transform="scale(0.621549 0.621549)" d="M416.35 664.465C421.344 666.296 423.9 666.812 424.271 672.807C422.707 671.764 420.671 670.14 419.117 668.979L416.35 664.465Z"/><defs><linearGradient id="gradient_16" gradientUnits="userSpaceOnUse" x1="650.47461" y1="693.06091" x2="762.79236" y2="503.9281"><stop offset="0" stop-color="#838283"/><stop offset="1" stop-color="#B2B1B1"/></linearGradient></defs><path fill="url(#gradient_16)" transform="scale(0.621549 0.621549)" d="M707.98 380.637C782.626 455.8 807.026 567.358 770.571 666.809C767.6 666.487 762.946 664.796 760.26 663.472C752.075 685.603 738.669 715.005 723.794 733.581C723.629 733.538 723.465 733.495 723.301 733.453C722.895 732.55 715.773 731.563 715.778 731.583C710.872 713.234 692.173 708.272 677.976 698.755C671.926 694.7 665.076 695.47 661.804 691.323C706.92 635.224 715.027 568.135 690.145 501.216C687.073 493.321 682.962 485.455 679.162 477.848C665.357 456.266 660.52 449.021 641.113 430.615C643.746 428.378 648.634 426.664 651.953 425.404L650.79 422.404C647.185 400.537 661.174 382.009 684.856 392.702L686.854 393.845C697.942 390.453 702.507 390.651 707.98 380.637Z"/><defs><linearGradient id="gradient_17" gradientUnits="userSpaceOnUse" x1="824.4267" y1="609.12054" x2="641.32318" y2="431.43079"><stop offset="0" stop-color="#BDBCBC"/><stop offset="1" stop-color="#F3F3F2"/></linearGradient></defs><path fill="url(#gradient_17)" transform="scale(0.621549 0.621549)" d="M707.98 380.637C782.626 455.8 807.026 567.358 770.571 666.809C767.6 666.487 762.946 664.796 760.26 663.472C763.952 655.226 766.912 642.376 769.064 633.622C779.747 590.152 778.82 550.797 768.016 507.496C765.798 507.639 764.853 507.769 762.94 506.615C747.023 497.007 732.062 486.174 715.636 477.329C714.949 476.959 702.899 468.281 702.868 468.237C694.565 472.197 686.676 474.414 679.162 477.848C665.357 456.266 660.52 449.021 641.113 430.615C643.746 428.378 648.634 426.664 651.953 425.404L650.79 422.404C647.185 400.537 661.174 382.009 684.856 392.702L686.854 393.845C697.942 390.453 702.507 390.651 707.98 380.637Z"/><path fill="#A2A1A4" transform="scale(0.621549 0.621549)" d="M702.868 468.237C716.344 461.097 730.594 453.708 741.294 442.619C751.876 457.873 763.434 489.316 768.016 507.496C765.798 507.639 764.853 507.769 762.94 506.615C747.023 497.007 732.062 486.174 715.636 477.329C714.949 476.959 702.899 468.281 702.868 468.237Z"/><path fill="#6F6E74" transform="scale(0.621549 0.621549)" d="M650.79 422.404C647.185 400.537 661.174 382.009 684.856 392.702L686.854 393.845C690.987 397.764 693.811 400.311 694.84 406.21C693.721 409.869 691.746 422.115 692.369 425.63C688.926 430.871 685.141 434.419 678.753 435.526C666.624 437.627 659.294 435.359 651.953 425.404L650.79 422.404Z"/><path fill="#A2A1A4" transform="scale(0.621549 0.621549)" d="M660.094 400.543C661.569 401.428 663.051 403.732 664.143 405.188C655.326 420.908 662.306 422.785 676.661 423.034C678.769 428.228 679.133 427.237 683.135 430.554L683.071 431.663C682.713 431.807 682.353 431.944 681.99 432.074C659.478 440.133 651.239 418.653 660.094 400.543Z"/><path fill="#D2CAC0" transform="scale(0.621549 0.621549)" d="M669.649 405.749C680.767 406.191 683.574 411.853 675.205 419.635C666.47 419.26 659.838 412.233 669.649 405.749Z"/><path fill="#222122" transform="scale(0.621549 0.621549)" d="M694.84 406.21C695.906 413.407 696.189 418.98 692.369 425.63C691.746 422.115 693.721 409.869 694.84 406.21Z"/><path fill="#FCFCFB" transform="scale(0.621549 0.621549)" d="M668.622 436.653C670.6 436.569 671.961 436.395 673.886 436.777L674.357 437.637L673.495 439.761C671.664 440.949 672.625 440.68 670.553 440.74C669.12 439.632 669.077 438.453 668.622 436.653Z"/><path fill="#8E332D" transform="scale(0.621549 0.621549)" d="M737.621 550.197C750.201 549.578 760.922 559.229 761.62 571.802C762.319 584.375 752.734 595.153 740.163 595.932C727.478 596.717 716.579 587.029 715.874 574.343C715.168 561.657 724.928 550.822 737.621 550.197Z"/><path fill="#E18E6F" transform="scale(0.621549 0.621549)" d="M733.226 582.458C718.367 574.388 730.152 556.337 742.95 559.974C747.423 561.245 750.062 566.372 751.994 570.37C753.794 571.775 754.763 572.207 755.465 574.253C754.8 577.44 752.251 577.863 749.357 578.924C748.039 580.268 746.066 582.409 744.672 583.547C739.57 591.361 737.222 589.545 733.226 582.458Z"/><path fill="#BC7771" transform="scale(0.621549 0.621549)" d="M733.226 582.458C736.962 583.187 740.864 584.069 744.672 583.547C739.57 591.361 737.222 589.545 733.226 582.458Z"/><path fill="#994B48" transform="scale(0.621549 0.621549)" d="M751.994 570.37C753.794 571.775 754.763 572.207 755.465 574.253C754.8 577.44 752.251 577.863 749.357 578.924C750.894 575.38 751.158 574.16 751.994 570.37Z"/><defs><linearGradient id="gradient_18" gradientUnits="userSpaceOnUse" x1="314.76584" y1="631.495" x2="396.31143" y2="332.92395"><stop offset="0" stop-color="#69686C"/><stop offset="1" stop-color="#A9A8A8"/></linearGradient></defs><path fill="url(#gradient_18)" transform="scale(0.621549 0.621549)" d="M411.119 333.676C410.36 334.655 410.246 334.809 409.056 335.17L408.747 336.065C411.174 338.362 415.156 342.887 417.445 344.345C422.459 347.542 428.066 350.474 433.233 353.533C443.992 359.959 454.664 366.53 465.246 373.244C470.405 376.58 474.98 381.314 480.028 384.796C483.981 387.523 489.278 384.47 494.453 385.511C503.681 385.053 511.238 384.338 520.654 384.273C520.736 385.717 520.791 387.326 520.953 388.746C475.036 390.054 426.591 402.399 392.662 435.163C388.222 438.785 383.634 443.695 379.648 447.865C377.223 450.304 374.853 452.797 372.541 455.342C370.399 453.881 371.135 453.909 369.023 454.042C364.126 456.987 361.135 461.721 357.842 466.367C348.786 478.937 341.57 492.735 336.411 507.342C334.283 513.4 332.33 520.947 330.112 526.584C330.111 516.167 335.764 503.424 339.809 493.895L337.096 494.588C336.039 493.656 335.548 492.963 334.874 491.721C332.256 486.905 304.795 469.321 299.327 466.319C294.336 463.58 288.516 461.833 283.925 458.496C282.538 457.487 281.218 456.691 279.508 456.79C271.618 466.878 265.995 490.998 261.045 503.2C259.752 506.387 259.563 513.492 258.287 516.691C254.997 524.936 256.299 535.141 253.773 543.223C251.93 549.12 254.384 561.672 252.606 566.316C248.821 551.354 253.596 532.317 255.777 517.059C255.949 515.859 257.412 512.431 256.055 511.803C255.128 514.602 254.849 517.272 254.429 520.175C252.205 535.557 249.07 552.923 248.851 568.49C248.588 587.177 249.313 599.327 245.062 617.896C227.693 514.008 271.678 409.402 358.075 349.124C359.223 353.711 360.204 355.984 361.317 361.437C374.628 351.873 396.112 339.944 411.119 333.676Z"/><path fill="#575659" transform="scale(0.621549 0.621549)" d="M494.453 385.511C503.681 385.053 511.238 384.338 520.654 384.273C520.736 385.717 520.791 387.326 520.953 388.746C475.036 390.054 426.591 402.399 392.662 435.163C388.222 438.785 383.634 443.695 379.648 447.865C377.223 450.304 374.853 452.797 372.541 455.342C370.399 453.881 371.135 453.909 369.023 454.042C364.126 456.987 361.135 461.721 357.842 466.367C348.786 478.937 341.57 492.735 336.411 507.342C334.283 513.4 332.33 520.947 330.112 526.584C330.111 516.167 335.764 503.424 339.809 493.895C344.836 483.618 351.315 471.856 358.318 462.593C383.362 429.47 418.578 405.03 458.297 392.923C471.339 388.947 481.304 387.59 494.453 385.511Z"/><path fill="#575659" transform="scale(0.621549 0.621549)" d="M353.973 390.064C366.705 388.859 378.041 398.109 379.411 410.822C380.78 423.534 371.674 434.986 358.977 436.519C350.617 437.528 342.36 433.963 337.364 427.186C332.368 420.409 331.405 411.469 334.843 403.784C338.282 396.099 345.59 390.858 353.973 390.064Z"/><defs><linearGradient id="gradient_19" gradientUnits="userSpaceOnUse" x1="358.03452" y1="401.11203" x2="343.79922" y2="427.25845"><stop offset="0" stop-color="#5D696A"/><stop offset="1" stop-color="#767C7D"/></linearGradient></defs><path fill="url(#gradient_19)" transform="scale(0.621549 0.621549)" d="M351.445 395.883C352.14 396.842 351.62 397.471 350.943 398.278C346.012 404.161 343.593 406.538 344.674 414.742C346.582 429.214 354.53 423.177 358.55 426.407C358.916 429.249 357.702 431.502 354.935 432.51C342.984 430.489 335.8 422.777 339.187 410.054C341.109 402.833 345.341 399.438 351.445 395.883Z"/><path fill="#B6BCBD" transform="scale(0.621549 0.621549)" d="M353.772 405.686C360.576 405.724 361.204 408.064 363.99 413.7L358.409 421.342C347.351 420.004 346.111 412.842 353.772 405.686Z"/><defs><linearGradient id="gradient_20" gradientUnits="userSpaceOnUse" x1="493.34039" y1="466.99677" x2="496.90808" y2="729.42627"><stop offset="0" stop-color="#333236"/><stop offset="1" stop-color="#4E4C4E"/></linearGradient></defs><path fill="url(#gradient_20)" transform="scale(0.621549 0.621549)" d="M399.244 467.585L399.627 469.092C396.549 473.886 392.465 477.891 389.3 482.425C374.392 503.783 362.007 537.295 361.392 563.759C361.112 569.226 360.334 576.037 363.228 580.771C365.415 585.941 364.851 595.468 366.235 601.065C371.687 623.117 380.091 645.451 393.391 664.041C394.877 666.119 398.56 670.727 400.609 672.027C403.66 658.077 410.787 664.563 418.15 670.698L419.117 668.979C420.671 670.14 422.707 671.764 424.271 672.807C462.405 701.015 487.943 711.247 537.544 704.773C544.896 703.813 552.83 700.17 559.733 699.268C563.246 698.706 566.285 697.844 569.714 696.928C576.194 695.039 579.817 692.019 583.115 686.278C590.293 681.898 596.24 677.859 603.146 673.041C605.791 672.454 608.976 671.383 611.406 672.391C613.655 669.703 616.375 667.445 619 665.112C621.493 666.33 626.868 668.99 628.664 671.057L629.05 670.938C632.411 671.945 633.474 673.738 635.585 676.491C593.844 721.875 522.904 743.604 463.781 722.591C424.598 708.664 389.762 680.102 371.791 642.185C350.711 597.706 353.619 555.181 369.506 509.866C370.859 507.996 373.645 500.363 376.322 496.546C383.45 486.382 391.415 477.216 399.244 467.585Z"/><path fill="#D2CAC0" transform="scale(0.621549 0.621549)" d="M400.609 672.027C403.66 658.077 410.787 664.563 418.15 670.698C419.621 677.948 418.254 679.293 412.648 684.143C407.857 680.177 404.544 676.862 400.609 672.027Z"/><path fill="#D2CAC0" transform="scale(0.621549 0.621549)" d="M619 665.112C621.493 666.33 626.868 668.99 628.664 671.057C625.439 676.028 617.037 686.749 610.355 682.006C608.673 678.552 610.015 675.75 611.406 672.391C613.655 669.703 616.375 667.445 619 665.112Z"/><path fill="#D2CAC0" transform="scale(0.621549 0.621549)" d="M508.738 710.653L524.694 711.388C525.508 717.182 526.335 720.021 522.821 724.923C517.196 725.291 511.551 725.266 505.914 725.312C505.202 718.216 504.68 716.422 508.738 710.653Z"/><defs><linearGradient id="gradient_21" gradientUnits="userSpaceOnUse" x1="529.57019" y1="632.66412" x2="317.40338" y2="770.35773"><stop offset="0" stop-color="#6A6F76"/><stop offset="1" stop-color="#92888F"/></linearGradient></defs><path fill="url(#gradient_21)" transform="scale(0.621549 0.621549)" d="M245.062 617.896C249.313 599.327 248.588 587.177 248.851 568.49C249.07 552.923 252.205 535.557 254.429 520.175C254.849 517.272 255.128 514.602 256.055 511.803C257.412 512.431 255.949 515.859 255.777 517.059C253.596 532.317 248.821 551.354 252.606 566.316C252.118 575.586 253.193 582.721 253.307 591.596C251.626 596.85 252.686 604.529 253.376 610.112C257.057 639.859 266.829 672.313 280.587 699.015C287.862 713.135 304.566 733.943 315.232 746.457C317.696 749.348 323.522 753.357 326.038 756.056C331.011 761.392 334.621 766.11 339.95 771.277C365.576 796.121 396.934 812.762 430.88 823.576C486.655 841.841 546.784 841.968 602.636 823.941C617.665 819.011 628.893 810.546 645.018 809.942C647.284 809.857 649.682 808.537 652.021 808.507C574.541 853.782 479.751 858.088 398.484 820.024C317.216 781.96 259.856 706.391 245.062 617.896Z"/><path fill="#A2A1A4" transform="scale(0.621549 0.621549)" d="M253.307 591.596C253.909 604.457 257.029 620.945 260.082 633.239C272.718 684.136 300.54 730.282 340.123 764.73C348.388 771.923 380.642 801.011 390.529 802.039L391.23 801.783L392.256 803.31C396.823 806.804 425.383 818.347 432.196 820.588C509.297 846.222 593.932 834.628 661.294 789.203C670.499 782.918 678.749 776.567 687.011 769.11C690.26 766.177 703.223 751.62 705.588 750.732C706.033 752.06 706.03 752.871 706.189 754.262C709.01 747.903 718.267 740.472 723.794 733.581C738.669 715.005 752.075 685.603 760.26 663.472C762.946 664.796 767.6 666.487 770.571 666.809C748.733 726.384 706.813 776.489 652.021 808.507C649.682 808.537 647.284 809.857 645.018 809.942C628.893 810.546 617.665 819.011 602.636 823.941C546.784 841.968 486.655 841.841 430.88 823.576C396.934 812.762 365.576 796.121 339.95 771.277C334.621 766.11 331.011 761.392 326.038 756.056C323.522 753.357 317.696 749.348 315.232 746.457C304.566 733.943 287.862 713.135 280.587 699.015C266.829 672.313 257.057 639.859 253.376 610.112C252.686 604.529 251.626 596.85 253.307 591.596Z"/><path fill="#222122" transform="scale(0.621549 0.621549)" d="M687.38 505.478C687.951 503.896 688.893 502.351 690.145 501.216C715.027 568.135 706.92 635.224 661.804 691.323C652.437 701.964 636.561 718.38 624.92 726.507C596.888 746.078 557.94 758.198 523.963 760.469C514.176 761.123 491.549 760.708 482.568 757.944C492.576 757.495 503.14 758.951 513.391 758.935C543.326 758.813 572.868 752.11 599.923 739.3C605.319 736.684 613.691 732.833 618.424 728.852C619.319 728.098 619.164 726.977 619.208 725.87C616.417 727.201 613.621 728.74 610.934 730.266C560.512 758.907 498.986 765.834 444.714 743.952C426.209 736.491 404.64 724.36 390.638 709.994C395.126 712.633 404.369 720.516 409.386 724.05C425.616 735.257 443.626 743.637 462.652 748.836C502.812 759.565 545.354 757.138 584.033 741.912C595.748 737.246 606.255 731.489 617.178 725.254C632.259 715.05 645.684 702.592 656.984 688.315C663.61 681.753 674.609 663.079 678.695 654.467L679.089 653.661C703.004 604.242 705.254 557.017 687.38 505.478Z"/><path fill="#868688" transform="scale(0.621549 0.621549)" d="M379.648 447.865C383.206 455.518 385.763 456.345 393.313 459.846C394.63 462.08 396.825 466.71 399.22 467.331L399.244 467.585C391.415 477.216 383.45 486.382 376.322 496.546C373.645 500.363 370.859 507.996 369.506 509.866C367.747 510.971 368.094 512.002 366.594 513.393L365.607 511.985C364.003 509.711 360.547 504.113 358.065 504.127C356.295 504.061 355.659 502.492 353.924 501.94C351.212 501.078 347.658 502.3 345.802 499.864C346.3 498.608 346.229 498.565 346.288 497.214C349.377 486.346 365.429 464.378 372.541 455.342C374.853 452.797 377.223 450.304 379.648 447.865Z"/><defs><linearGradient id="gradient_22" gradientUnits="userSpaceOnUse" x1="315.67206" y1="613.12598" x2="376.66031" y2="627.67413"><stop offset="0" stop-color="#2D2B2D"/><stop offset="1" stop-color="#5A595D"/></linearGradient></defs><path fill="url(#gradient_22)" transform="scale(0.621549 0.621549)" d="M325.071 575.05C327.673 568.863 329.263 562.299 329.782 555.608C330.172 556.401 330.196 558.51 330.273 559.533C329.729 589.084 332.205 617.879 344.872 645.149C348.555 653.025 352.737 660.656 357.395 667.998C359.722 671.625 362.261 675.192 364.63 678.794C365.618 680.296 365.263 680.251 364.718 681.151C361.347 681.212 352.691 671.942 349.685 669.387C346.761 666.901 341.144 660.48 339.397 657.03C328.467 635.45 324.697 601.124 324.271 577.388C324.159 572.531 324.32 567.671 324.753 562.831C326.02 565.835 325.287 571.576 325.071 575.05Z"/><path fill="#222122" transform="scale(0.621549 0.621549)" d="M330.112 526.584C332.33 520.947 334.283 513.4 336.411 507.342C341.57 492.735 348.786 478.937 357.842 466.367C361.135 461.721 364.126 456.987 369.023 454.042C371.135 453.909 370.399 453.881 372.541 455.342C365.429 464.378 349.377 486.346 346.288 497.214C336.808 513.649 332.06 540.884 330.273 559.533C330.196 558.51 330.172 556.401 329.782 555.608C329.263 562.299 327.673 568.863 325.071 575.05C325.287 571.576 326.02 565.835 324.753 562.831C324.017 555.677 328.319 533.862 330.112 526.584Z"/><path fill="#6F6E74" transform="scale(0.621549 0.621549)" d="M391.23 801.783C390.652 791.087 386.579 773.29 381.652 763.437C380.76 761.653 377.614 757.083 378.492 755.598C385.9 764.281 392.046 791.515 392.256 803.31L391.23 801.783Z"/><path fill="#BC7771" transform="scale(0.621549 0.621549)" d="M284.147 545.693C297.015 545.201 307.727 550.27 312.108 563.279C314.622 570.663 314.046 578.748 310.512 585.701C306.316 593.866 300.365 597.325 292.023 600.063C289.216 600.34 286.521 600.63 283.692 600.443C263.528 599.111 256.121 573.768 265.274 558.237C269.837 550.495 275.914 547.871 284.147 545.693Z"/><path fill="#8E332D" transform="scale(0.621549 0.621549)" d="M268.795 587.288C265.935 579.071 263.974 571.04 267.828 562.629C270.316 557.217 274.869 553.026 280.47 550.995C286.33 548.821 292.829 549.174 298.417 551.971C321.161 563.544 310.755 604.663 278.489 595.789C273.99 594.241 271.383 591.037 268.795 587.288Z"/><path fill="#994B48" transform="scale(0.621549 0.621549)" d="M268.795 587.288C275.89 584.542 277.311 589.797 278.489 595.789C273.99 594.241 271.383 591.037 268.795 587.288Z"/><path fill="#DDA28B" transform="scale(0.621549 0.621549)" d="M284.156 559.892C293.895 559.599 297.23 561.048 302.134 569.736C300.291 577.214 299.028 580.04 292.728 584.421C278.451 587.677 266.629 570.05 284.156 559.892Z"/><path fill="#BC7771" transform="scale(0.621549 0.621549)" d="M509 771.791C523.526 769.185 537.421 778.825 540.063 793.341C542.704 807.857 533.095 821.771 518.582 824.447C504.019 827.131 490.044 817.485 487.393 802.92C484.743 788.355 494.425 774.406 509 771.791Z"/><path fill="#8E332D" transform="scale(0.621549 0.621549)" d="M509.24 775.461C541.666 771.744 546.612 813.911 517.333 820.288C515.528 820.498 514.994 820.599 513.383 819.808C509.168 817.836 505.726 818.81 501.314 816.492C490.873 811.152 487.432 798.115 493.022 787.978C496.89 780.964 501.884 777.764 509.24 775.461Z"/><path fill="#E18E6F" transform="scale(0.621549 0.621549)" d="M505.619 786.915C515.049 780.493 524.729 784.593 528.08 795.174C528.28 798.746 528.085 800.605 526.649 803.935C520.495 811.966 519.204 812.69 509.126 812.744C505.908 810.473 504.819 809.66 502.267 806.563C497.243 797.476 499.902 794.467 505.619 786.915Z"/><path fill="#DDA28B" transform="scale(0.621549 0.621549)" d="M505.619 786.915C515.049 780.493 524.729 784.593 528.08 795.174L527.445 795.83C523.018 797.263 519.158 796.42 514.539 795.912C511.738 793.365 508.313 789.675 505.619 786.915Z"/><path fill="#BC7771" transform="scale(0.621549 0.621549)" d="M502.267 806.563C512.197 804.144 516.624 803.802 526.649 803.935C520.495 811.966 519.204 812.69 509.126 812.744C505.908 810.473 504.819 809.66 502.267 806.563Z"/><path fill="#D2CAC0" transform="scale(0.621549 0.621549)" d="M351.962 723.181C353.631 723.324 354.702 723.508 356.319 724.065C359.053 725.022 361.256 727.086 362.39 729.75C363.481 732.366 363.397 735.324 362.16 737.874C360.452 741.462 358.089 742.508 354.596 743.729C340.338 739.945 340.213 730.72 351.962 723.181Z"/><path fill="#868688" transform="scale(0.621549 0.621549)" d="M655.534 719.336L656.128 719.53C651.029 738.663 652.082 738.132 664.861 753.614C662.649 752.638 660.442 751.651 658.24 750.652C651.377 746.492 644.241 728.021 646.406 720.366C647.445 719.956 649.95 721.153 651.316 721.634C653.877 721.205 653.221 721.193 655.534 719.336Z"/><path fill="#B6BCBD" transform="scale(0.621549 0.621549)" d="M672.813 724.245C683.518 724.374 685.789 733.039 677.004 739.605C665.267 737.548 665.154 731.956 672.813 724.245Z"/><path fill="#A2A1A4" transform="scale(0.621549 0.621549)" d="M374.093 747.65L374.777 749.124C375.58 750.618 376.135 751.144 376.181 752.7C375.617 752.495 375.054 752.289 374.491 752.084C370.609 754.487 367.425 758.886 362.747 759.674C358.852 760.331 352.241 759.479 349.06 757.267C348.07 755.49 348.274 756.399 348.281 754.475C349.876 753.753 352.362 755.431 355.118 755.515C363.114 755.758 368.435 752.44 374.093 747.65Z"/><path fill="#868688" transform="scale(0.621549 0.621549)" d="M381.599 734.851C382.586 737.385 384.91 742.405 383.945 744.918C381.694 745.002 381.104 743.351 379.288 743.278L378.053 742.842C379.273 740.196 380.455 737.532 381.599 734.851Z"/><path fill="#84737B" transform="scale(0.621549 0.621549)" d="M374.093 747.65L378.053 742.842L379.288 743.278L374.777 749.124L374.093 747.65Z"/><defs><linearGradient id="gradient_23" gradientUnits="userSpaceOnUse" x1="930.0968" y1="537.85107" x2="761.98328" y2="411.96878"><stop offset="0" stop-color="#A9ACAE"/><stop offset="1" stop-color="#E3E2E1"/></linearGradient></defs><path fill="url(#gradient_23)" transform="scale(0.621549 0.621549)" d="M789.136 292.344C791.158 294.597 793.182 296.912 795.289 299.08L797.778 297.173L800.496 294.978C804.381 298.676 806.908 301.396 809.833 305.907C813.064 309.891 823.602 322.606 825.661 326.375C835.051 337.421 847.373 356.804 854.925 369.262C893.508 432.91 908.397 494.738 909.511 568.626C888.312 568.273 867.111 568.088 845.909 568.07C828.878 568.093 810.565 568.611 793.689 567.859C791.55 544.105 789.908 520.5 783.454 497.42C777.935 477.684 770.543 458.909 760.568 440.986C759.308 438.721 755.764 432.702 755.001 430.441C750.392 423.639 746.059 416.095 741.225 408.964C732.187 397.578 725.09 388.677 714.536 378.781C711.865 376.791 710.738 375.201 709.592 372.09C715.307 365.763 721.497 360.245 727.371 354.126C729.271 352.536 731.952 349.794 733.697 347.933C751.344 329.107 772.524 311.983 789.136 292.344Z"/><path fill="#FCFCFB" transform="scale(0.621549 0.621549)" d="M789.136 292.344C791.158 294.597 793.182 296.912 795.289 299.08L797.778 297.173L800.496 294.978C804.381 298.676 806.908 301.396 809.833 305.907C813.064 309.891 823.602 322.606 825.661 326.375C826.147 328.297 826.265 328.76 827.556 330.257L827.689 331.277C825.259 333.802 824.112 333.786 821.711 335.682C818.144 338.498 814.929 343.144 812.634 347.019C811.655 348.67 810.781 351.256 809.077 351.565L808.763 352.421C810.234 382.088 799.702 395.823 770.638 402.325C761.739 403.997 749.404 406.002 741.225 408.964C732.187 397.578 725.09 388.677 714.536 378.781C711.865 376.791 710.738 375.201 709.592 372.09C715.307 365.763 721.497 360.245 727.371 354.126C729.271 352.536 731.952 349.794 733.697 347.933C751.344 329.107 772.524 311.983 789.136 292.344Z"/><path fill="#868688" transform="scale(0.621549 0.621549)" d="M789.136 292.344C791.158 294.597 793.182 296.912 795.289 299.08C784.662 308.111 775.843 317.785 765.984 327.606L714.536 378.781C711.865 376.791 710.738 375.201 709.592 372.09C715.307 365.763 721.497 360.245 727.371 354.126C729.271 352.536 731.952 349.794 733.697 347.933C751.344 329.107 772.524 311.983 789.136 292.344Z"/><path fill="#E5E4E4" transform="scale(0.621549 0.621549)" d="M809.833 305.907C813.064 309.891 823.602 322.606 825.661 326.375C826.147 328.297 826.265 328.76 827.556 330.257L827.689 331.277C825.259 333.802 824.112 333.786 821.711 335.682C818.144 338.498 814.929 343.144 812.634 347.019C811.655 348.67 810.781 351.256 809.077 351.565L808.763 352.421C807.112 344.655 809.07 331.515 798.519 330.499C807.48 329.929 809.645 326.683 804.255 319.191C805.408 318.048 806.698 316.589 807.827 315.381C808.534 311.995 808.494 309.169 809.833 305.907Z"/><path fill="#B6BCBD" transform="scale(0.621549 0.621549)" d="M798.519 330.499C788.399 324.48 793.891 313.46 801.69 316.073C802.659 317.415 803.063 317.971 804.255 319.191C809.645 326.683 807.48 329.929 798.519 330.499Z"/><path fill="#D2CAC0" transform="scale(0.621549 0.621549)" d="M797.778 297.173L800.496 294.978C804.381 298.676 806.908 301.396 809.833 305.907C808.494 309.169 808.534 311.995 807.827 315.381C806.698 316.589 805.408 318.048 804.255 319.191C803.063 317.971 802.659 317.415 801.69 316.073C808.863 310.301 805.544 300.491 797.778 297.173Z"/><path fill="#E5E4E4" transform="scale(0.621549 0.621549)" d="M741.225 408.964C749.404 406.002 761.739 403.997 770.638 402.325L771.142 403.333C761.779 407.321 758.139 421.319 755.827 430.269L755.001 430.441C750.392 423.639 746.059 416.095 741.225 408.964Z"/><path fill="#6F6E74" transform="scale(0.621549 0.621549)" d="M893.068 545.875C896.353 545.458 899.374 547.729 899.885 551C900.396 554.271 898.212 557.355 894.956 557.959C892.765 558.366 890.527 557.55 889.112 555.829C887.697 554.108 887.33 551.755 888.152 549.685C888.975 547.615 890.858 546.156 893.068 545.875Z"/><path fill="#B6BCBD" transform="scale(0.621549 0.621549)" d="M893.663 547.043C895.644 546.797 897.464 548.164 897.779 550.135C898.093 552.105 896.79 553.971 894.832 554.355C893.502 554.615 892.137 554.129 891.271 553.088C890.405 552.046 890.176 550.615 890.674 549.356C891.173 548.097 892.319 547.21 893.663 547.043Z"/><path fill="#6F6E74" transform="scale(0.621549 0.621549)" d="M810.478 545.469C819.255 550.08 817.778 554.054 810.452 558.631C800.025 554.012 802.625 550.839 810.478 545.469Z"/><path fill="#B6BCBD" transform="scale(0.621549 0.621549)" d="M809.307 547.59C810.595 547.08 812.058 547.305 813.134 548.178C814.209 549.052 814.729 550.438 814.494 551.803C814.259 553.168 813.305 554.3 811.999 554.763C810.029 555.462 807.863 554.454 807.129 552.498C806.395 550.542 807.363 548.358 809.307 547.59Z"/><defs><linearGradient id="gradient_24" gradientUnits="userSpaceOnUse" x1="277.35425" y1="241.02197" x2="480.37433" y2="300.17029"><stop offset="0" stop-color="#81888C"/><stop offset="1" stop-color="#C0C3C2"/></linearGradient></defs><path fill="url(#gradient_24)" transform="scale(0.621549 0.621549)" d="M240.929 285.02C248.567 276.439 268.296 260.939 277.602 254.085C340.012 208.059 414.562 181.357 492.008 177.289C498.143 176.932 505.597 176.553 511.721 176.627C513.711 217.199 512.107 254.64 512.355 295.001C503.586 295.431 494.826 296.028 486.08 296.793C476.224 298.037 466.246 299.172 456.514 301.132C418.756 309.075 382.996 324.573 351.385 346.691C339.875 354.761 329.644 363.332 318.867 372.32L256.741 309.652C253.15 305.933 243.138 295.266 239.088 292.612C236.52 288.969 237.963 287.921 240.929 285.02Z"/><defs><linearGradient id="gradient_25" gradientUnits="userSpaceOnUse" x1="242.87798" y1="232.01765" x2="512.19946" y2="236.89009"><stop offset="0" stop-color="#A1A0A3"/><stop offset="1" stop-color="#CFCFCF"/></linearGradient></defs><path fill="url(#gradient_25)" transform="scale(0.621549 0.621549)" d="M240.929 285.02C248.567 276.439 268.296 260.939 277.602 254.085C340.012 208.059 414.562 181.357 492.008 177.289C498.143 176.932 505.597 176.553 511.721 176.627C513.711 217.199 512.107 254.64 512.355 295.001C503.586 295.431 494.826 296.028 486.08 296.793C485.71 296.753 482.694 296.322 482.631 296.27C479.126 293.396 475.46 289.757 472.071 286.82C464.626 280.369 457.769 276.334 449.086 272.11L449.164 256.207L441.963 252.673C440.966 234.506 447.449 232.659 456.475 218.402C459.47 213.672 461.755 206.498 465.573 201.142C473.077 197.993 477.574 196.212 484.828 192.479C485.902 191.6 485.983 191.299 487.306 191.17L488.681 190.776L490.795 189.349C488.962 186.608 487.538 185.349 485.184 183.053C469.893 185.016 455.517 186.064 440.196 188.742C392.866 197.276 347.605 214.779 306.849 240.306C299.535 244.817 276.517 259.946 270.778 265.979C262.697 272.991 251.384 283.349 243.053 289.345C241.691 290.541 240.568 291.568 239.088 292.612C236.52 288.969 237.963 287.921 240.929 285.02Z"/><path fill="#6F6E74" transform="scale(0.621549 0.621549)" d="M490.795 189.349C493.332 192.223 495.508 194.261 493.316 198.159C488.367 201.454 486.205 196.568 484.828 192.479C485.902 191.6 485.983 191.299 487.306 191.17L488.681 190.776L490.795 189.349Z"/><path fill="#D2CAC0" transform="scale(0.621549 0.621549)" d="M488.681 190.776C491.536 191.895 493.34 193.156 492.455 196.439C490.728 197.687 491.658 197.425 489.592 197.331C487.042 195.519 487.165 194.199 487.306 191.17L488.681 190.776Z"/><path fill="#A2A1A4" transform="scale(0.621549 0.621549)" d="M240.929 285.02L243.368 284.563L243.825 285.114C242.441 287.014 242.175 286.714 242.136 288.617L243.053 289.345C241.691 290.541 240.568 291.568 239.088 292.612C236.52 288.969 237.963 287.921 240.929 285.02Z"/><path fill="#868688" transform="scale(0.621549 0.621549)" d="M270.778 265.979C271.367 266.379 272.542 266.87 272.428 267.559C271.673 272.15 267.516 288.336 264.699 291.081L263.838 290.547C264.058 291.691 263.803 292.875 263.133 293.828L264.258 293.639C264.654 294.875 264.416 295.071 264.037 296.274C262.239 301.987 262.697 304.956 257.523 308.833C257.115 309.138 257.123 309.178 256.741 309.652C253.15 305.933 243.138 295.266 239.088 292.612C240.568 291.568 241.691 290.541 243.053 289.345C251.384 283.349 262.697 272.991 270.778 265.979Z"/><path fill="#B6BCBD" transform="scale(0.621549 0.621549)" d="M263.133 293.828C261.958 295.497 259.77 296.109 257.9 295.291C256.029 294.473 254.994 292.451 255.422 290.456C255.851 288.46 257.626 287.042 259.667 287.065C261.709 287.087 263.452 288.543 263.838 290.547C264.058 291.691 263.803 292.875 263.133 293.828Z"/><defs><linearGradient id="gradient_26" gradientUnits="userSpaceOnUse" x1="567.76404" y1="194.20161" x2="738.4043" y2="338.98792"><stop offset="0" stop-color="#D1D1D0"/><stop offset="1" stop-color="#FFFFFE"/></linearGradient></defs><path fill="url(#gradient_26)" transform="scale(0.621549 0.621549)" d="M519.104 176.663C527.393 177.114 535.974 177.007 544.363 177.41C558.623 178.005 572.808 179.789 586.77 182.744C626.605 192.145 663.714 202.196 699.881 222.143C709.817 227.622 719.442 233.407 729.17 239.24C734.455 242.409 740.688 246.824 745.944 249.634C751.258 250.783 774.173 266.59 778.311 270.607L780.301 276.882C782.453 278.863 784.665 280.776 786.935 282.619C788.679 284.259 791.855 287.1 793.23 288.821C791.046 290.154 790.768 290.376 789.136 292.344C772.524 311.983 751.344 329.107 733.697 347.933C731.952 349.794 729.271 352.536 727.371 354.126C721.497 360.245 715.307 365.763 709.592 372.09C702.901 364.104 692.839 357.081 684.358 350.991C650.846 326.928 618.789 313 579.323 301.96C572.256 300.868 564.949 299.194 557.738 298.073C544.857 296.077 531.844 295.053 518.809 295.008C518.841 281.487 518.011 267.552 517.908 253.926C517.824 228.166 518.222 202.408 519.104 176.663Z"/><path fill="#B6BCBD" transform="scale(0.621549 0.621549)" d="M519.104 176.663C527.393 177.114 535.974 177.007 544.363 177.41C558.623 178.005 572.808 179.789 586.77 182.744C580.975 190.173 580.031 193.16 570.75 197.561C564.896 200.337 557.836 205.547 553.366 210.299C549.201 218.31 544.225 225.561 539.766 233.366C536.941 238.309 534.374 244.422 532.07 249.697C537.203 257.254 546.273 268.304 552.972 274.497C564.369 285.034 570.903 288.013 579.323 301.96C572.256 300.868 564.949 299.194 557.738 298.073C544.857 296.077 531.844 295.053 518.809 295.008C518.841 281.487 518.011 267.552 517.908 253.926C517.824 228.166 518.222 202.408 519.104 176.663Z"/><path fill="#D2CAC0" transform="scale(0.621549 0.621549)" d="M553.366 210.299C549.201 218.31 544.225 225.561 539.766 233.366C536.941 238.309 534.374 244.422 532.07 249.697C527.379 243.91 524.417 240.687 521.333 233.822C528.152 225.834 544.188 215.793 553.366 210.299Z"/><path fill="#868688" transform="scale(0.621549 0.621549)" d="M534.339 186.942C545.349 186.942 543.959 193.265 538.101 199.364C527.024 199.431 529.46 193.532 534.339 186.942Z"/><path fill="#B6BCBD" transform="scale(0.621549 0.621549)" d="M534.761 188.826C537.796 189.116 538.995 189.039 540.831 191.601C540.966 194.31 540.946 193.443 539.644 196.153C538.387 196.448 537.615 196.522 536.349 196.682C532.3 195.049 533.713 192.3 534.761 188.826Z"/><path fill="#6F6E74" transform="scale(0.621549 0.621549)" d="M532.387 276.481C539.072 278.953 540.167 282.229 538.913 288.743C531.319 287.688 531.656 282.414 532.387 276.481Z"/><path fill="#FCFCFB" transform="scale(0.621549 0.621549)" d="M774.993 295.39L775.592 295.099C776.033 293.963 776.336 293.662 777.386 292.908C782.373 289.327 780.981 284.611 786.935 282.619C788.679 284.259 791.855 287.1 793.23 288.821C791.046 290.154 790.768 290.376 789.136 292.344C772.524 311.983 751.344 329.107 733.697 347.933C731.952 349.794 729.271 352.536 727.371 354.126C726.735 353.76 726.795 353.694 726.286 353.115C727.925 346.728 759.196 315.709 764.4 308.583C766.628 305.531 768.371 302.358 769.3 298.696L770.517 298.283C772.375 297.55 773.382 296.612 774.993 295.39Z"/><path fill="#868688" transform="scale(0.621549 0.621549)" d="M745.944 249.634C751.258 250.783 774.173 266.59 778.311 270.607L780.301 276.882C773.195 271.99 750.775 254.807 745.944 249.634Z"/><path fill="#B6BCBD" transform="scale(0.621549 0.621549)" d="M761.391 290.708C762.672 291.535 763.034 291.983 764.551 290.941C767.803 292.973 771.548 293.04 775.345 293.397L774.993 295.39C773.382 296.612 772.375 297.55 770.517 298.283C766.855 297.473 761.762 294.938 761.391 290.708Z"/><path fill="#D2CAC0" transform="scale(0.621549 0.621549)" d="M772.834 287.619C773.972 289.333 775.35 291.246 775.345 293.397C771.548 293.04 767.803 292.973 764.551 290.941C767.004 289.213 769.83 288.858 772.834 287.619Z"/><path fill="#A2A1A4" transform="scale(0.621549 0.621549)" d="M761.391 290.708C763.876 284.787 767.728 284.086 772.834 287.619C769.83 288.858 767.004 289.213 764.551 290.941C763.034 291.983 762.672 291.535 761.391 290.708Z"/><defs><linearGradient id="gradient_27" gradientUnits="userSpaceOnUse" x1="609.21649" y1="809.52289" x2="670.73383" y2="936.78784"><stop offset="0" stop-color="#51555A"/><stop offset="1" stop-color="#6E6D77"/></linearGradient></defs><path fill="url(#gradient_27)" transform="scale(0.621549 0.621549)" d="M520.004 851.77C582.462 850.49 645.661 825.5 694.34 787.138C698.151 784.134 708.049 772.448 710.49 772.018C712.116 772.59 712.092 772.474 713.237 773.725L753.613 817.092C763.572 827.75 776.395 841.874 787.556 850.954C790.272 852.648 790.984 853.172 793.4 855.27C778.762 866.603 769.173 878.6 754.363 889.787C701.214 929.417 638.955 955.058 573.306 964.354C564.467 965.621 555.571 966.463 546.651 966.877C540.138 967.164 529.125 967.259 522.779 968.154C521.537 967.627 521.182 967.337 520.059 966.623C518.473 964.051 519.446 929.586 519.529 924.066C519.931 903.497 520.079 882.923 519.973 862.349L520.004 851.77Z"/><path fill="#A2A1A4" transform="scale(0.621549 0.621549)" d="M519.973 862.349C523.115 865.256 523.285 869.137 523.489 873.233C524.922 901.973 523.026 930.79 523.281 959.556L527.903 962.342L522.779 968.154C521.537 967.627 521.182 967.337 520.059 966.623C518.473 964.051 519.446 929.586 519.529 924.066C519.931 903.497 520.079 882.923 519.973 862.349Z"/><path fill="#A2A1A4" transform="scale(0.621549 0.621549)" d="M787.556 850.954C786.568 852.545 785.899 853.551 784.033 853.575C780.625 850.73 776.789 846.11 773.689 842.733C767.783 836.279 761.813 829.884 755.779 823.55C748.623 816.077 741.406 808.662 734.129 801.306C728.512 795.737 712.186 781.994 713.237 773.725L753.613 817.092C763.572 827.75 776.395 841.874 787.556 850.954Z"/><path fill="#B6BCBD" transform="scale(0.621549 0.621549)" d="M763.692 858.204C765.862 853.473 771.808 852.877 774.255 856.325C773.573 858.538 770.394 859.916 768.502 862.793C767.106 864.19 767.111 864.089 765.285 864.55C761.475 863.362 762.693 861.01 763.692 858.204Z"/><path fill="#575659" transform="scale(0.621549 0.621549)" d="M763.692 858.204L768.502 862.793C767.106 864.19 767.111 864.089 765.285 864.55C761.475 863.362 762.693 861.01 763.692 858.204Z"/><path fill="#A2A1A4" transform="scale(0.621549 0.621549)" d="M535.305 948.936C536.55 948.325 538.031 948.444 539.162 949.248C540.293 950.052 540.893 951.411 540.724 952.788C540.556 954.166 539.646 955.34 538.355 955.848C536.467 956.59 534.33 955.711 533.512 953.855C532.693 952 533.484 949.83 535.305 948.936Z"/><path fill="#6F6E74" transform="scale(0.621549 0.621549)" d="M716.187 795.324C721.067 797.113 721.845 801.869 722.577 806.414C715.936 803.81 715.058 802.496 716.187 795.324Z"/><path fill="#222122" transform="scale(0.621549 0.621549)" d="M528.017 860.836C529.363 860.96 530.707 861.107 532.048 861.277C535.967 861.797 537.169 862.738 539.482 865.763C533.572 866.081 530.565 866.66 528.017 860.836Z"/><path fill="#868688" transform="scale(0.621549 0.621549)" d="M564.812 959.327L565.218 959.72C562.929 962.052 549.789 961.804 545.906 961.785L545.532 961.56L545.999 961.015C552.285 960.096 558.484 959.743 564.812 959.327Z"/><path fill="#6F6E74" transform="scale(0.621549 0.621549)" d="M319.422 771.115C324.827 777.555 336.794 787.294 343.59 792.596C382.827 823.213 430.106 844.685 479.976 849.306C489.338 850.173 498.811 849.097 508.244 851.215C508.279 851.21 508.314 851.206 508.349 851.202C509.461 851.648 509.767 851.905 510.889 851.985C511.096 855.771 511.215 859.562 511.245 863.354C510.868 898.02 510.873 932.689 511.259 967.355C440.826 968.442 360.631 944.703 301.648 906.393C276.016 889.745 258.881 874.789 235.779 855.266C241.507 849.367 247.849 843.433 253.791 837.701C272.429 817.61 287.991 801.25 307.671 782.103C311.545 778.394 315.462 774.731 319.422 771.115Z"/><defs><linearGradient id="gradient_28" gradientUnits="userSpaceOnUse" x1="432.14325" y1="791.46027" x2="386.27191" y2="848.39539"><stop offset="0" stop-color="#433F42"/><stop offset="1" stop-color="#52555D"/></linearGradient></defs><path fill="url(#gradient_28)" transform="scale(0.621549 0.621549)" d="M319.422 771.115C324.827 777.555 336.794 787.294 343.59 792.596C382.827 823.213 430.106 844.685 479.976 849.306C489.338 850.173 498.811 849.097 508.244 851.215C508.279 851.21 508.314 851.206 508.349 851.202C507.018 853.993 507.687 860.037 507.875 863.334C497.896 865.238 491.712 865.776 481.152 864.711C439.72 860.532 395.372 845.522 359.036 825.35C354.784 822.99 348.057 815.058 343.95 812.525C330.178 804.029 323.526 800.556 312.803 787.826C311.107 785.746 309.5 784.044 307.671 782.103C311.545 778.394 315.462 774.731 319.422 771.115Z"/><path fill="#6F6E74" transform="scale(0.621549 0.621549)" d="M490.555 853.98C492.846 854.104 494.543 853.991 496.601 854.959C498.181 856.798 497.702 856.034 498.125 858.664C495.706 858.743 493.565 859.09 491.429 858.118C490.066 856.228 490.491 856.843 490.555 853.98Z"/><path fill="#A2A1A4" transform="scale(0.621549 0.621549)" d="M307.671 782.103C309.5 784.044 311.107 785.746 312.803 787.826C292.736 800.343 278.657 821.999 259.772 836.267C258.063 837.558 255.905 837.947 253.791 837.701C272.429 817.61 287.991 801.25 307.671 782.103Z"/><path fill="#84737B" transform="scale(0.621549 0.621549)" d="M495.303 948.991C498.945 948.787 502.589 948.639 506.235 948.547L506.222 961.264C503.68 961.183 501.164 961.276 498.76 960.539L498.527 960.068C497.803 956.598 497.807 956.689 494.596 956.173C491.686 956.745 491.126 956.633 488.156 956.256C487.54 953.398 487.17 952.476 488.921 950.033C491.041 948.83 492.818 949.055 495.303 948.991Z"/><path fill="#A2A1A4" transform="scale(0.621549 0.621549)" d="M488.156 956.256C487.54 953.398 487.17 952.476 488.921 950.033C491.041 948.83 492.818 949.055 495.303 948.991C495.189 951.794 495.154 953.369 494.596 956.173C491.686 956.745 491.126 956.633 488.156 956.256Z"/><path fill="#A2A1A4" transform="scale(0.621549 0.621549)" d="M257.271 851.894C260.104 852.288 262.432 852.382 263.896 855.051C264.197 857.31 263.696 857.756 262.542 859.894C259.389 859.898 256.985 860.193 255.471 857.129C255.427 854.854 256.159 853.992 257.271 851.894Z"/><path fill="#575659" transform="scale(0.621549 0.621549)" d="M488.156 956.256C491.126 956.633 491.686 956.745 494.596 956.173C497.807 956.689 497.803 956.598 498.527 960.068C495.237 960.192 490.57 960.814 487.944 958.905C487.453 957.193 487.448 958.051 488.156 956.256Z"/><path fill="#868688" transform="scale(0.621549 0.621549)" d="M246.57 854.928C250.921 856.543 251.612 858.658 254.742 861.746C257.364 864.333 261.49 862.802 265.073 862.833L265.393 863.769C258.386 867.774 248.679 860.842 246.57 854.928Z"/><path fill="#6F6E74" transform="scale(0.621549 0.621549)" d="M117.88 576.479C125.656 576.279 140.076 576.326 147.591 577.35C156.873 577.454 166.018 577.481 175.304 577.127C190.877 576.532 206.484 577.281 222.042 577.467C225.815 577.45 233.263 576.595 235.205 580.266C232.634 618.654 255.117 681.277 273.991 714.041C281.131 726.408 289.503 738.022 298.979 748.705C303.837 754.244 309.562 760.143 314.2 765.736C311.394 768.856 306.554 774.439 303.201 776.584C296.413 782.269 282.265 797.493 275.866 804.229C261.059 819.924 246.167 835.539 231.192 851.074C225.11 843.641 217.514 835.69 211.153 828.266C201.776 817.214 192.913 805.736 184.592 793.869C142.337 733.012 118.302 650.227 117.88 576.479Z"/><path fill="#575659" transform="scale(0.621549 0.621549)" d="M222.042 577.467C225.815 577.45 233.263 576.595 235.205 580.266C232.634 618.654 255.117 681.277 273.991 714.041C281.131 726.408 289.503 738.022 298.979 748.705C303.837 754.244 309.562 760.143 314.2 765.736C311.394 768.856 306.554 774.439 303.201 776.584C271.576 750.209 241.887 687.859 232.112 648.135C226.843 626.722 224.785 605.945 219.736 584.561L221.361 583.802C221.823 581.219 222.05 580.07 222.042 577.467Z"/><path fill="#868688" transform="scale(0.621549 0.621549)" d="M222.042 577.467C225.815 577.45 233.263 576.595 235.205 580.266C230.309 583.703 227.219 583.522 221.361 583.802C221.823 581.219 222.05 580.07 222.042 577.467Z"/><path fill="#A2A1A4" transform="scale(0.621549 0.621549)" d="M147.591 577.35C156.873 577.454 166.018 577.481 175.304 577.127C190.877 576.532 206.484 577.281 222.042 577.467C222.05 580.07 221.823 581.219 221.361 583.802L219.736 584.561C207.663 584.584 146.935 583.506 139.491 580.791C138.328 580.367 138.186 580.259 137.711 579.187C139.225 576.697 144.878 577.379 147.591 577.35Z"/><path fill="#575659" transform="scale(0.621549 0.621549)" d="M208.055 590.523C211.052 590.199 216.259 591.594 217.873 594.163C221.527 599.982 216.431 603.577 212.586 606.146C202.737 606.875 197.211 596.986 208.055 590.523Z"/><path fill="#A2A1A4" transform="scale(0.621549 0.621549)" d="M208.932 594.176C211.455 594.709 213.063 594.524 214.801 596.052C214.977 597.738 214.095 598.742 213.2 600.263C210.757 600.879 210.042 601.207 208.415 599.106C207.892 596.983 208.283 596.377 208.932 594.176Z"/><path fill="#A2A1A4" transform="scale(0.621549 0.621549)" d="M225.069 834.062C218.189 831.79 218.877 820.997 228.643 823.757C234.071 825.623 235.105 825.491 235.876 831.555C235.725 833.42 235.868 834.15 234.621 835.522C231.371 837.26 228.059 835.803 225.069 834.062Z"/><path fill="#84737B" transform="scale(0.621549 0.621549)" d="M225.069 834.062C218.189 831.79 218.877 820.997 228.643 823.757C226.706 826.755 224.943 828.767 226.824 832.461L225.069 834.062Z"/><path fill="#994B48" transform="scale(0.621549 0.621549)" d="M226.824 832.461C230.54 832.398 232.198 832.156 235.876 831.555C235.725 833.42 235.868 834.15 234.621 835.522C231.371 837.26 228.059 835.803 225.069 834.062L226.824 832.461Z"/><path fill="#868688" transform="scale(0.621549 0.621549)" d="M277.501 772.586C280.386 770.547 281.253 769.786 284.677 770.169C286.825 771.314 287.329 772.342 287.827 774.764C283.005 784.954 273.108 780.952 277.501 772.586Z"/><path fill="#A2A1A4" transform="scale(0.621549 0.621549)" d="M277.501 772.586C280.386 770.547 281.253 769.786 284.677 770.169C286.825 771.314 287.329 772.342 287.827 774.764C283.502 774.909 281.308 774.176 277.501 772.586Z"/><path fill="#575659" transform="scale(0.621549 0.621549)" d="M133.971 591.614C135.913 590.488 136.07 590.251 138.193 590.433C142.507 592.423 141.963 597.521 140.559 601.303L139.522 602.265C137.01 601.352 137.375 598.788 137.076 596.48L133.971 591.614Z"/><path fill="#A2A1A4" transform="scale(0.621549 0.621549)" d="M137.076 596.48C136.239 599.499 135.945 600.607 132.699 601.194C126.726 598.559 129.682 594.097 133.971 591.614L137.076 596.48Z"/><defs><linearGradient id="gradient_29" gradientUnits="userSpaceOnUse" x1="104.03521" y1="447.95676" x2="313.28357" y2="422.47495"><stop offset="0" stop-color="#5D5F68"/><stop offset="1" stop-color="#889191"/></linearGradient></defs><path fill="url(#gradient_29)" transform="scale(0.621549 0.621549)" d="M228.246 296.295L232.1 298.929C242.43 307.603 309.852 370.897 312.353 378.83C311.718 380.572 311.606 380.574 310.465 381.953C310.383 382.024 310.302 382.096 310.221 382.167C266.55 425.115 233.408 507.867 233.553 568.56C229.947 568.731 227.061 568.508 223.554 567.638C222.109 567.279 221.745 567.452 220.433 568.199C219.48 568.742 128.494 568.269 117.849 568.223C117.662 550.361 119.204 534.696 121.468 516.999C132.532 430.5 170.526 360.617 228.246 296.295Z"/><path fill="#B6BCBD" transform="scale(0.621549 0.621549)" d="M232.1 298.929C242.43 307.603 309.852 370.897 312.353 378.83C311.718 380.572 311.606 380.574 310.465 381.953C291.139 362.493 270.915 343.542 251.552 324.106C248.077 320.617 231.256 305.337 229.523 302.459C229.947 300.899 230.959 300.121 232.1 298.929Z"/><path fill="#6F6E74" transform="scale(0.621549 0.621549)" d="M227.946 330.616C216.644 325.263 221.987 314.896 227.938 317.974C235.118 316.647 239.221 331.784 227.946 330.616Z"/><path fill="#A2A1A4" transform="scale(0.621549 0.621549)" d="M227.946 330.616C216.644 325.263 221.987 314.896 227.938 317.974C227.064 319.586 225.997 320.99 226.288 322.711C227.914 324.575 229.248 325.312 229.472 327.294C228.964 328.398 228.441 329.508 227.946 330.616Z"/><path fill="#A2A1A4" transform="scale(0.621549 0.621549)" d="M294.764 373.834L295.702 374.811C296.351 380.806 284.316 390.152 279.902 393.28C275.626 388.959 291.804 376.077 294.764 373.834Z"/><path fill="#A2A1A4" transform="scale(0.621549 0.621549)" d="M132.338 548.129C134.702 547.645 137.026 549.114 137.604 551.456C138.181 553.798 136.806 556.179 134.488 556.849C132.905 557.308 131.197 556.862 130.039 555.689C128.881 554.515 128.458 552.802 128.938 551.225C129.418 549.648 130.722 548.46 132.338 548.129Z"/><path fill="#868688" transform="scale(0.621549 0.621549)" d="M215.979 556.951C214.781 553.931 210.747 553.455 208.677 549.766L209.093 549.062C216.058 547.982 217.093 552.511 216.407 558.346L215.979 556.951Z"/><path fill="#A2A1A4" transform="scale(0.621549 0.621549)" d="M215.979 556.951L216.407 558.346C214.034 560.467 209.694 563.137 206.683 560.851L207.292 559.718C210.216 557.616 212.401 557.627 215.979 556.951Z"/><defs><linearGradient id="gradient_30" gradientUnits="userSpaceOnUse" x1="513.06842" y1="364.30548" x2="686.74512" y2="365.15085"><stop offset="0" stop-color="#C9C8C8"/><stop offset="1" stop-color="#F9FAF9"/></linearGradient></defs><path fill="url(#gradient_30)" transform="scale(0.621549 0.621549)" d="M358.075 349.124C403.636 317.337 457.815 300.206 513.374 300.021C577.463 299.808 639.584 322.147 688.852 363.126C695.502 368.656 701.885 374.5 707.98 380.637C702.507 390.651 697.942 390.453 686.854 393.845L684.856 392.702C661.174 382.009 647.185 400.537 650.79 422.404L651.953 425.404C648.634 426.664 643.746 428.378 641.113 430.615L638.489 428.465C623.125 416.037 617.176 412.439 599.288 404.07C586.03 398.978 571.391 393.043 557.657 389.781C548.328 387.565 536.712 386.024 527.132 384.564L520.654 384.273C511.238 384.338 503.681 385.053 494.453 385.511C489.278 384.47 483.981 387.523 480.028 384.796C474.98 381.314 470.405 376.58 465.246 373.244C454.664 366.53 443.992 359.959 433.233 353.533C428.066 350.474 422.459 347.542 417.445 344.345C415.156 342.887 411.174 338.362 408.747 336.065L409.056 335.17C410.246 334.809 410.36 334.655 411.119 333.676C396.112 339.944 374.628 351.873 361.317 361.437C360.204 355.984 359.223 353.711 358.075 349.124Z"/><path fill="#A2A1A4" transform="scale(0.621549 0.621549)" d="M358.075 349.124C403.636 317.337 457.815 300.206 513.374 300.021C513.02 304.777 512.942 308.155 513.019 312.927C525.821 312.442 558.379 313.911 570.118 318.77C575.302 319.653 584.138 323.118 588.677 325.812C582.019 324.066 576.35 322.051 569.846 319.774C559.149 325.249 541.245 332.3 536.66 343.312C537.838 355.609 533.502 364.806 521.51 369.375C521.764 376.547 523.17 378.657 527.132 384.564L520.654 384.273C511.238 384.338 503.681 385.053 494.453 385.511C489.278 384.47 483.981 387.523 480.028 384.796C474.98 381.314 470.405 376.58 465.246 373.244C454.664 366.53 443.992 359.959 433.233 353.533C428.066 350.474 422.459 347.542 417.445 344.345C415.156 342.887 411.174 338.362 408.747 336.065L409.056 335.17C410.246 334.809 410.36 334.655 411.119 333.676C396.112 339.944 374.628 351.873 361.317 361.437C360.204 355.984 359.223 353.711 358.075 349.124Z"/><path fill="#B6BCBD" transform="scale(0.621549 0.621549)" d="M358.075 349.124C403.636 317.337 457.815 300.206 513.374 300.021C513.02 304.777 512.942 308.155 513.019 312.927C525.821 312.442 558.379 313.911 570.118 318.77L569.622 318.724C561.633 317.927 553.553 315.527 545.497 314.872C509.972 311.984 473.749 313.927 439.312 323.587C432.581 325.476 416.261 328.788 411.119 333.676C396.112 339.944 374.628 351.873 361.317 361.437C360.204 355.984 359.223 353.711 358.075 349.124Z"/><path fill="#8E332D" transform="scale(0.621549 0.621549)" d="M521.51 369.375C509.469 372.788 497.495 367.756 493.262 355.519C491.226 349.65 491.643 343.208 494.42 337.65C503.911 318.501 530.051 321.905 536.66 343.312C537.838 355.609 533.502 364.806 521.51 369.375Z"/><path fill="#E18E6F" transform="scale(0.621549 0.621549)" d="M512.436 334.788C519.186 333.706 525.563 338.22 526.784 344.944C528.005 351.669 523.622 358.136 516.922 359.495C512.464 360.399 507.865 358.823 504.899 355.374C501.934 351.925 501.065 347.142 502.629 342.871C504.193 338.6 507.944 335.508 512.436 334.788Z"/><path fill="#FCFCFB" transform="scale(0.621549 0.621549)" d="M684.856 392.702C688.446 382.188 684.871 365.084 686.191 362.493L688.852 363.126C695.502 368.656 701.885 374.5 707.98 380.637C702.507 390.651 697.942 390.453 686.854 393.845L684.856 392.702Z"/><path fill="#D2CAC0" transform="scale(0.621549 0.621549)" d="M650.79 422.404L651.953 425.404C648.634 426.664 643.746 428.378 641.113 430.615L638.489 428.465C642.517 427.731 649.55 426.789 650.79 422.404Z"/><path fill="#222122" transform="scale(0.621549 0.621549)" d="M510.889 851.985C513.2 850.953 516.096 851.945 519.416 851.849C519.445 853.928 519.677 859.032 519.161 860.808C518.093 860.783 517.294 860.691 516.231 860.572C513.201 862.401 513.89 866.044 511.939 868.241C511.743 866.608 511.593 864.955 511.245 863.354C511.215 859.562 511.096 855.771 510.889 851.985Z"/><path fill="#A2A1A4" transform="scale(0.621549 0.621549)" d="M793.23 288.821C796.285 289.59 798.033 287.21 800.247 285.221C799.459 288.488 798.044 292.123 800.496 294.978L797.778 297.173L795.289 299.08C793.182 296.912 791.158 294.597 789.136 292.344C790.768 290.376 791.046 290.154 793.23 288.821Z"/><path fill="#6E2522" transform="scale(0.621549 0.621549)" d="M492.313 990.966C507.759 990.79 521.174 990.253 536.548 991.502C533.444 991.772 530.862 991.527 528.233 992.792C527.183 994.426 527.413 993.539 527.659 995.577C530.651 997.538 539.176 993.998 540.261 999.904C541.124 1004.6 540.396 1006.36 536.755 1008.71C533.485 1015.03 533.904 1019.16 525.306 1021.67C513.524 1025.12 497.45 1021.63 495.002 1007.61L494.578 1005.96C491.8 1005.73 490.051 1005.9 488.231 1003.98C486.609 995.904 500.357 998.69 502.731 994.1C501.574 990.691 495.416 991.288 492.313 990.966Z"/><path fill="#8E332D" transform="scale(0.621549 0.621549)" d="M494.841 1000.06C502.996 1004.56 522.226 1002.92 530.663 999.413C530.323 1003.87 530.088 1008.97 529.536 1013.32C517.891 1025.76 506.554 1018.82 496.404 1009.01C495.929 1008.55 495.462 1008.09 495.002 1007.61L494.578 1005.96C495.031 1003.34 495.01 1002.72 494.841 1000.06Z"/><path fill="#E18E6F" transform="scale(0.621549 0.621549)" d="M494.841 1000.06L495.795 998.261C500.798 995.713 525.428 996.055 530.663 999.413C522.226 1002.92 502.996 1004.56 494.841 1000.06Z"/><path fill="#4D201E" transform="scale(0.621549 0.621549)" d="M933.455 598.416C935.551 596.275 936.839 593.83 939.785 594.945C940.772 595.797 941.726 596.639 942.748 597.451C941.113 600.26 943.812 606.939 942.052 610.494L941.688 610.326C941.462 607.743 941.184 601.651 940.209 599.61C937.29 599.224 933.68 604.921 932.957 607.568C932.883 604.333 933.168 601.63 933.455 598.416Z"/></g></svg>